<svg width="800.0000000000001" height="600" xmlns="http://www.w3.org/2000/svg">
 <g>
  <title>Layer 1</title>
  <path id="svg_3" d="m189.30876,120.72435c-2.15475,0.4586 -2.20645,0.59607 -2.30627,6.11996c-0.09343,5.18889 -0.04811,5.06526 -1.52731,4.13936c-2.27881,-1.42639 -3.66495,-2.31677 -3.95682,-2.54271c-2.54445,-1.96756 -6.09334,1.08078 -4.25348,3.65349c0.26523,0.37132 2.30867,1.95613 2.52138,1.95613c0.05806,0 0.50662,0.25992 0.9969,0.57751c0.48987,0.31757 1.35631,0.87415 1.92493,1.23679c0.56862,0.36263 1.55354,0.99347 2.189,1.40231c0.63541,0.40845 1.32251,0.8062 1.5269,0.88324c0.82907,0.31325 0.87479,9.01465 0.04771,9.01465c-0.17615,0 -2.31146,-1.32213 -4.36401,-2.70192c-2.58502,-1.73808 -5.12547,-0.72682 -5.12547,2.03987c0,1.35213 0.47078,1.73372 7.79359,6.32022c2.35359,1.47379 2.1826,1.07961 2.20724,5.0862c0.02704,4.39218 0.56267,5.35049 2.89676,5.1826c2.0331,-0.14615 2.36234,-0.94646 2.36751,-5.75813l0.00398,-3.34102l1.15314,-0.75842c0.63422,-0.41714 1.42151,-0.92236 1.74956,-1.12263c0.81438,-0.49771 1.5154,-0.94093 3.38425,-2.13782c0.87718,-0.5621 1.77187,-1.11316 1.98817,-1.22495c2.73453,-1.40979 2.00566,-5.53413 -0.97818,-5.53413c-0.56224,0 -2.04222,0.63911 -2.35994,1.01953c-0.11253,0.1347 -0.26523,0.24451 -0.34,0.24451c-0.07434,0 -0.94873,0.52893 -1.94241,1.17557c-2.11342,1.37465 -2.6033,1.55913 -2.68164,1.01086c-0.02864,-0.20305 -0.0322,-2.19905 -0.00754,-4.43564l0.04492,-4.06628l0.98891,-0.67389c1.31416,-0.8959 2.6033,-1.71989 5.28334,-3.37817c3.28763,-2.03432 3.70155,-2.52533 3.53972,-4.19901c-0.22028,-2.27962 -2.47922,-3.05859 -4.79468,-1.65392c-2.76471,1.67682 -3.36234,2.05251 -3.43709,2.15953c-0.0843,0.1205 -1.3587,0.78845 -1.50462,0.78845c-0.04735,0 -0.08591,-1.86685 -0.08591,-4.14886c0,-4.36649 -0.05966,-4.87607 -0.65051,-5.55112c-0.27081,-0.30931 -1.87367,-1.01837 -1.96312,-0.86827c-0.00598,0.01028 -0.15388,0.04901 -0.32886,0.08612m36.89354,20.41754c-1.65495,0.74698 -2.07846,2.69321 -1.26448,5.81302c0.11731,0.44916 0.26166,1.40901 0.32088,2.13309c0.05885,0.72369 0.20555,1.67172 0.32608,2.10623c0.34435,1.24429 0.51135,3.01869 0.3161,3.36354c-0.13638,0.24135 -2.6864,2.60196 -3.95724,3.66339c-0.15904,0.13272 -0.51689,0.44437 -0.79524,0.69205c-1.5965,1.42204 -2.0172,1.45561 -2.0172,0.16156c0,-0.28206 -0.07674,-0.71303 -0.17099,-0.95752c-0.09381,-0.24451 -0.27277,-1.26009 -0.39763,-2.25713c-0.35986,-2.87451 -0.68991,-3.54802 -2.01442,-4.11407c-2.53966,-1.08548 -4.32623,1.078 -3.61606,4.37796c0.08986,0.41713 0.26523,1.46945 0.39008,2.3385c0.12447,0.86902 0.3714,2.50438 0.54874,3.63411c0.47757,3.04202 0.61156,2.71098 -1.98059,4.89819c-0.51494,0.43454 -1.43744,1.26169 -2.05022,1.838l-1.11377,1.04797l0.01036,1.15781l0.01073,1.15779l0.75391,0.67786c1.07756,0.96936 2.79576,0.95357 3.66537,-0.03358c0.08748,-0.09953 0.66008,-0.60951 1.27243,-1.13368c0.61238,-0.52419 1.47124,-1.28696 1.90863,-1.69502c1.32254,-1.23441 1.70306,-1.36754 2.94249,-1.02939c0.56862,0.15524 1.5452,0.42029 2.17027,0.58937c0.62547,0.16905 1.20799,0.35077 1.29549,0.40448c0.08708,0.0533 0.61354,0.1991 1.16943,0.3239c0.55627,0.12445 1.86449,0.47798 2.9071,0.78569c2.45375,0.72406 3.05736,0.62335 4.14331,-0.6897c0.74077,-0.89549 0.87279,-1.85696 0.38016,-2.76944c-0.59367,-1.10011 -1.07245,-1.37346 -3.71553,-2.11925c-4.60097,-1.2988 -4.58069,-1.28854 -3.83559,-1.96954c1.23192,-1.12616 3.10118,-2.76906 4.22569,-3.71472c0.66045,-0.55498 1.25769,-1.10605 1.32768,-1.22455c0.18805,-0.31839 1.71021,-0.27057 2.72896,0.08493c0.47319,0.16513 1.16945,0.35156 1.54677,0.41397c0.37778,0.06203 0.86566,0.20305 1.08435,0.31287c0.2187,0.1098 0.71973,0.2516 1.11339,0.31482c0.39365,0.06361 1.01595,0.24966 1.38298,0.41357c0.36699,0.16432 0.81197,0.29866 0.98851,0.29866c0.17653,0 0.65688,0.11336 1.06763,0.25162c2.53053,0.85361 4.61452,-0.89116 3.92064,-3.28218c-0.38292,-1.31935 -1.78258,-2.07344 -5.39348,-2.90532c-0.98892,-0.22795 -2.44345,-0.7782 -2.44345,-0.92474c0,-0.11139 0.54399,-0.63281 2.15674,-2.06671c0.78218,-0.69524 1.45776,-1.3 1.50148,-1.34384c0.04376,-0.04385 0.70222,-0.63597 1.4633,-1.3158c1.24539,-1.11276 1.39449,-1.30592 1.48914,-1.93359c0.47041,-3.1147 -2.47884,-4.2314 -5.0213,-1.9012c-5.41579,4.96375 -5.75494,5.20076 -5.94063,4.15317c-0.04893,-0.27652 -0.15469,-0.85837 -0.2354,-1.29288c-0.08073,-0.43451 -0.26404,-1.60771 -0.40759,-2.6071c-0.40959,-2.85239 -0.942,-3.83678 -2.29277,-4.23891c-0.83144,-0.24727 -1.1058,-0.23108 -1.86528,0.1118m-76.39154,0.67389c-0.87321,0.4294 -1.42514,1.25497 -1.6156,2.41591c-0.08191,0.50049 -0.18608,1.02744 -0.23102,1.17123c-0.04532,0.1434 -0.18648,1.05231 -0.31374,2.01892c-0.4008,3.04674 -0.63701,3.31258 -1.89592,2.13426c-0.45172,-0.42308 -1.1078,-1.00848 -1.4577,-1.30038c-0.34993,-0.29231 -1.39729,-1.21901 -2.32776,-2.05962c-2.36076,-2.1331 -4.15367,-2.45779 -5.18393,-0.93933c-1.07797,1.58913 -0.79727,2.60236 1.22191,4.41388c2.57907,2.3136 3.84352,3.41449 4.06857,3.54129c0.1185,0.06676 0.36743,0.33339 0.55312,0.59213l0.33757,0.47087l-0.44812,0.16985c-0.69504,0.26309 -3.51465,1.08789 -4.66025,1.3632c-2.19812,0.52853 -3.26616,1.86487 -2.87012,3.5903c0.44893,1.95532 2.13251,2.54112 4.8555,1.68867c1.25096,-0.39186 2.80133,-0.83543 4.45349,-1.27551c0.61237,-0.16313 1.39966,-0.40092 1.74957,-0.52852c1.36626,-0.49931 2.1651,-0.49338 2.86534,0.02014c1.59132,1.16765 5.99034,5.23711 5.91241,5.46939c-0.05368,0.16077 -2.06691,0.85085 -2.53413,0.86864c-0.26282,0.01027 -0.89824,0.19908 -3.30115,0.98161c-2.20886,0.7193 -2.9942,2.52254 -1.84819,4.24283c0.8589,1.28932 1.95436,1.49594 4.31351,0.81375c3.1604,-0.91328 5.7776,-1.65591 7.34428,-2.08331c1.24895,-0.3409 1.58736,-0.29034 2.30031,0.34406c0.23062,0.20502 0.69585,0.61348 1.03383,0.90776c0.338,0.29428 0.93643,0.82991 1.33008,1.19057c0.39368,0.36026 1.14282,0.99782 1.66451,1.41652l0.94876,0.7612l1.10344,-0.06201c1.57343,-0.08849 2.32613,-0.90341 2.32692,-2.51981l0.0004,-1.04916l-0.84137,-0.84691c-0.46283,-0.46613 -1.08951,-1.06062 -1.3925,-1.32132c-0.30339,-0.26071 -1.14915,-1.00648 -1.87961,-1.6575l-1.3289,-1.18346l0.10974,-1.26563c0.06004,-0.69603 0.20399,-1.79889 0.3197,-2.45067c0.11571,-0.65179 0.29585,-1.75386 0.40041,-2.44911c0.1046,-0.69522 0.29028,-1.82297 0.41315,-2.50597c0.47993,-2.67189 0.13362,-3.8269 -1.3555,-4.51974c-2.34047,-1.08907 -3.90715,0.40172 -4.31155,4.1026c-0.08072,0.73868 -0.25565,1.75546 -0.38889,2.25949c-0.13321,0.50365 -0.24216,1.08156 -0.24216,1.28421c0,0.93341 -0.95273,0.49611 -2.90152,-1.33159c-0.22903,-0.2153 -1.47005,-1.33003 -3.20174,-2.8777c-0.75151,-0.67113 -0.81474,-1.34543 -0.34195,-3.65587c0.12683,-0.62137 0.30377,-1.66301 0.39325,-2.31479c0.08907,-0.65178 0.26404,-1.76691 0.38889,-2.47833c0.1992,-1.13922 0.32288,-2.92862 0.27237,-3.94818c-0.0676,-1.36081 -2.3504,-2.32541 -3.80771,-1.60889m24.21381,17.32062c-0.12247,0.08177 -0.1698,2.37483 -0.15904,7.73442l0.01509,7.61826l1.98817,1.91661c1.09351,1.05428 2.95441,2.84528 4.13538,3.98016c1.18097,1.13449 3.27252,3.16249 4.64792,4.50632c1.70308,1.66422 2.57826,2.41394 2.74368,2.35115c0.31293,-0.11932 0.37218,-14.88733 0.06203,-15.47906c-0.09941,-0.19002 -0.61832,-0.76672 -1.15314,-1.28223c-1.76788,-1.7037 -7.29736,-7.0692 -9.56944,-9.28601c-2.2184,-2.16428 -2.37506,-2.28319 -2.71065,-2.05962m26.88036,3.47931c-1.84499,1.80008 -4.74695,4.62404 -6.44843,6.27521c-1.70145,1.65115 -3.18105,3.21541 -3.28801,3.47614c-0.14514,0.35512 -0.1833,2.31833 -0.1519,7.82129l0.04175,7.34727l0.34872,0c0.3213,0 2.27925,-1.84749 12.08406,-11.40053l1.48438,-1.44617l0,-7.67868l0,-7.67871l-0.35788,0.00552c-0.24811,0.00356 -1.38814,1.01044 -3.71269,3.27861m8.14749,15.55254c-0.43898,0.09047 -1.14676,0.71933 -3.54529,3.14984c-1.64816,1.67053 -3.74844,3.79768 -4.66702,4.72755c-4.99625,5.05699 -5.36644,5.48874 -4.93381,5.75417c0.31929,0.19592 14.93906,0.09996 15.3196,-0.10071c0.19284,-0.10153 0.88712,-0.73039 1.5432,-1.39717c1.21756,-1.23758 11.0546,-11.25871 11.4077,-11.62097c0.50021,-0.51349 -0.13521,-0.56444 -7.41228,-0.59526c-3.93974,-0.01659 -7.41028,0.02052 -7.7121,0.08255m-53.74121,0.3721c-0.32208,0.3255 0.18808,0.92909 4.13577,4.89148c2.33968,2.34915 5.21695,5.25369 6.39313,6.45454c1.17619,1.20125 2.29794,2.24406 2.49199,2.31715c0.19405,0.07347 3.64349,0.13431 7.66476,0.13512c8.72722,0.00156 8.4771,0.05649 6.85117,-1.49908c-0.53679,-0.51352 -1.09227,-1.07364 -1.23383,-1.24509c-0.14195,-0.17105 -1.87524,-1.94862 -3.85147,-3.95013c-1.97662,-2.00116 -4.33894,-4.40323 -5.24954,-5.33746l-1.65575,-1.69853l-7.01541,0c-3.85823,0 -7.32916,-0.04228 -7.71327,-0.09402c-0.38412,-0.05173 -0.75194,-0.03992 -0.81755,0.02606m-14.03165,1.89407c-2.10706,0.78609 -2.47725,2.78922 -0.93761,5.0704c0.38689,0.57318 0.89505,1.37151 1.12888,1.77364c0.23381,0.40213 0.46681,0.76672 0.51811,0.81017c0.44534,0.37843 1.08672,1.65353 0.95471,1.89845c-0.16064,0.29782 -6.67943,0.46887 -8.26599,0.21686c-0.73006,-0.11612 -0.51134,0.15367 -2.84665,-3.50418c-3.08522,-4.83182 -3.54211,-5.50098 -3.9131,-5.73166c-1.48315,-0.9216 -3.53175,-0.38237 -4.15207,1.093c-0.51454,1.22298 -0.10538,2.57274 1.44299,4.76152c0.30699,0.43372 0.55826,0.82793 0.55826,0.87575c0,0.10942 0.61357,0.9899 1.00443,1.44141c0.16185,0.18684 0.2704,0.50679 0.24138,0.71101l-0.05289,0.37093l-4.20138,0.04463c-4.67377,0.04938 -4.93184,0.09915 -5.69966,1.09894c-0.80481,1.04836 -0.72092,2.20221 0.23141,3.18382l0.78374,0.8078l4.72625,0c4.1024,0 4.73859,0.032 4.82011,0.24254c0.09662,0.25006 -0.41077,1.14674 -2.03986,3.60571c-0.50978,0.76909 -0.92688,1.46234 -0.92688,1.54054c0,0.07784 -0.15948,0.29984 -0.35469,0.49376c-0.57858,0.57475 -0.61157,2.2986 -0.06044,3.12575c1.23703,1.85739 3.5242,1.70886 4.9032,-0.31798c0.62387,-0.91722 2.4498,-3.75777 3.98227,-6.1958c0.5034,-0.80069 1.1237,-1.6899 1.3782,-1.97548l0.46283,-0.51904l4.0296,0.00238c5.05988,0.00316 4.94258,-0.08101 3.29839,2.36772c-1.35475,2.01735 -1.87166,2.84412 -1.96988,3.15065c-0.05687,0.17894 -0.16782,0.3255 -0.24614,0.3255c-0.70538,0 -0.50299,2.47675 0.27199,3.32878c1.40367,1.54332 3.40135,1.19295 4.74136,-0.83151c0.42032,-0.63481 0.89667,-1.347 1.0589,-1.58246c0.16185,-0.2354 0.29465,-0.46095 0.29465,-0.50087c0,-0.04028 0.32367,-0.55855 0.71892,-1.15225c0.96904,-1.45404 0.95552,-1.43312 1.5993,-2.42183c0.31134,-0.47798 0.69742,-1.11789 0.85808,-1.42206c0.66405,-1.25812 0.60242,-1.24112 4.75011,-1.29488l3.70953,-0.04817l0.53241,-0.57751c1.33723,-1.45009 0.81595,-3.73407 -0.96428,-4.2251c-0.34473,-0.0952 -1.95117,-0.17737 -3.56952,-0.18288c-4.15089,-0.01382 -4.23677,-0.03873 -4.87898,-1.41377c-0.1133,-0.24332 -2.32294,-3.63611 -3.41643,-5.24579c-0.33641,-0.49574 -0.61157,-0.96465 -0.61157,-1.04205c0,-0.07784 -0.1368,-0.26427 -0.30338,-0.41438c-0.16702,-0.15012 -0.38612,-0.47046 -0.48712,-0.71219c-0.35945,-0.86272 -2.04739,-1.42325 -3.10153,-1.0298m109.10556,0.52338c-0.70976,0.43806 -3.41963,4.19348 -3.41963,4.73901c0,0.07741 -0.10695,0.22911 -0.23738,0.33693c-0.1308,0.10783 -0.46605,0.59648 -0.74515,1.08589c-0.27914,0.48944 -0.5527,0.92552 -0.60835,0.96896c-0.05528,0.04346 -0.36983,0.5159 -0.69865,1.04959c-1.09508,1.77834 -0.6394,1.63652 -5.2587,1.63652c-3.95883,0 -4.53978,-0.04344 -4.53978,-0.33853c0,-0.12402 1.07042,-1.84471 2.51505,-4.04338c1.5901,-2.41946 1.67998,-3.64717 0.35429,-4.83696c-1.76987,-1.58835 -3.43358,-0.91287 -5.34264,2.16943c-0.49025,0.79201 -1.35034,2.15126 -1.91101,3.02029c-0.56026,0.86902 -1.1579,1.83365 -1.3277,2.14374c-0.16977,0.30969 -0.42148,0.65651 -0.55907,0.76991c-0.13757,0.11336 -0.25014,0.29546 -0.25014,0.40448c0,0.54552 -0.48349,0.63124 -4.03992,0.71538c-4.13698,0.09795 -4.48215,0.19553 -5.12192,1.44931c-0.46284,0.90775 -0.47517,1.30037 -0.06918,2.19983c0.6219,1.3786 0.93045,1.46986 5.26941,1.5607c2.07724,0.04344 3.80577,0.11459 3.84114,0.15802c0.26959,0.33102 0.97104,1.37544 1.47243,2.19273c0.17499,0.28519 0.8907,1.39914 1.59053,2.47556c0.69983,1.07642 1.61043,2.47833 2.02319,3.11549c1.89311,2.92151 5.03044,2.77617 5.53185,-0.25636c0.16698,-1.01164 -0.05528,-1.54964 -1.62592,-3.9379c-0.33046,-0.50206 -0.60086,-0.95753 -0.60086,-1.01204c0,-0.05412 -0.17891,-0.33142 -0.39763,-0.61662c-0.21869,-0.28479 -0.39761,-0.58264 -0.39761,-0.66164c0,-0.07939 -0.14633,-0.27574 -0.32529,-0.43649c-0.95549,-0.85916 -0.62187,-0.93817 4.16681,-0.98358l4.39821,-0.04228l0.45293,0.62927c0.24889,0.34564 0.73918,1.09735 1.0891,1.67009c0.34993,0.5728 1.09033,1.73097 1.6454,2.57315c0.5551,0.84254 1.1277,1.73689 1.27243,1.98692c0.14473,0.25046 0.34717,0.59964 0.44974,0.77582c1.57266,2.70544 4.52147,2.92744 5.60658,0.42186c0.57776,-1.33435 0.22986,-2.10977 -3.20889,-7.1541c-0.60237,-0.88365 -0.53719,-0.89789 4.11673,-0.89789c4.23557,0 4.24753,-0.00078 4.92032,-0.39262c1.79929,-1.04758 1.69748,-3.6606 -0.17535,-4.50832c-0.63702,-0.28796 -1.04379,-0.31325 -5.08017,-0.31325c-3.54529,0 -4.40335,-0.04108 -4.47021,-0.21408c-0.09583,-0.24846 0.22386,-0.8165 1.74762,-3.10403c2.08359,-3.12813 2.37268,-4.03389 1.70227,-5.33902c-0.68271,-1.32884 -2.54724,-1.90474 -3.75487,-1.15976m-54.31181,14.47255c-0.21552,0.25795 -0.40439,0.05649 8.24014,8.78909c1.95398,1.97389 3.66339,3.74593 3.7986,3.9375c0.64336,0.91287 0.89546,0.93936 8.87195,0.94054c4.02406,0.00079 7.41545,-0.06122 7.53635,-0.13747c0.32806,-0.20619 0.29463,-0.24332 -5.39308,-6.01489c-2.84109,-2.88242 -5.68059,-5.78659 -6.31084,-6.45415l-1.14517,-1.21309l-7.69858,-0.04385c-6.72993,-0.0383 -7.724,-0.01344 -7.89934,0.19632m-27.52095,0.395c-0.3062,0.16631 -2.14165,1.92413 -4.07892,3.90672c-1.93767,1.98216 -4.74695,4.83971 -6.24283,6.34944c-2.69157,2.71613 -2.90945,3.00055 -2.52177,3.28931c0.37138,0.2765 14.64043,0.27257 15.17166,-0.00436c0.573,-0.29863 0.85492,-0.56882 4.81136,-4.61218c1.7838,-1.823 4.39862,-4.48738 5.81099,-5.92125c1.97227,-2.00233 2.55521,-2.68651 2.51344,-2.94958l-0.05446,-0.34247l-7.42657,-0.00911c-7.0222,-0.0083 -7.45641,0.0079 -7.98286,0.2935m22.78433,3.96753l-0.35788,0.13591l0.004,7.0759c0.00198,3.89169 0.06523,7.34016 0.14076,7.66289c0.11412,0.48824 0.80162,1.23087 4.09204,4.42142c2.17505,2.10858 5.09688,4.95543 6.49297,6.32574c1.79013,1.75705 2.64583,2.49138 2.90268,2.49138l0.36427,0l0,-7.30898c0,-4.01967 -0.06323,-7.5278 -0.14038,-7.79523c-0.12766,-0.44125 -1.77504,-2.1248 -7.09894,-7.25366c-0.54118,-0.52141 -2.12216,-2.06038 -3.51271,-3.41965c-2.23589,-2.18523 -2.57028,-2.45581 -2.8868,-2.33572m-4.99467,0.89668c-0.69148,0.7292 -3.6248,3.58557 -9.4052,9.15726c-1.55075,1.49475 -2.88681,2.89311 -2.96872,3.10678c-0.0847,0.222 -0.14433,3.44139 -0.13876,7.49661c0.00555,3.90945 -0.03659,7.18333 -0.09343,7.27498c-0.05728,0.09204 0.06084,0.27414 0.26204,0.40529c0.35666,0.23224 0.437,0.16905 3.15996,-2.48151c1.53685,-1.4959 4.52348,-4.39888 6.63728,-6.45099l3.84352,-3.73129l0,-7.66763c0,-7.87819 0.00121,-7.86003 -0.54395,-7.86003c-0.02269,0 -0.36145,0.33775 -0.75273,0.75053m24.25679,13.72243c-1.03226,0.50563 -1.24936,0.90419 -1.24936,2.29147l0,1.25458l0.95432,0.8647c0.52486,0.47559 1.34796,1.23166 1.8291,1.68039c0.48114,0.44875 1.2601,1.10486 1.73048,1.45799l0.85611,0.64188l-0.1042,1.34344c-0.10258,1.32764 -0.48032,3.80399 -1.00124,6.56671c-0.73282,3.88655 0.03461,5.76724 2.3528,5.76724c1.99971,0 2.76039,-1.25259 3.25224,-5.35721c0.11852,-0.99109 0.29068,-1.8763 0.38213,-1.96718c0.09146,-0.09085 0.16621,-0.35551 0.16621,-0.58818c0,-1.13054 0.61275,-0.76239 4.37395,2.62881c0.69983,0.63084 1.55476,1.39401 1.89949,1.69618l0.62746,0.54907l-0.34157,2.03276c-0.18767,1.11789 -0.38448,2.45937 -0.43698,2.98076c-0.05247,0.52142 -0.19366,1.30356 -0.31334,1.7381c-1.25215,4.54501 -0.20955,7.09647 2.74565,6.71957c1.74561,-0.22241 2.27367,-1.42047 2.90869,-6.59952c0.14911,-1.21545 0.27356,-1.68552 0.50064,-1.88934c0.38448,-0.34601 0.0775,-0.58307 5.02881,3.88101c0.72926,0.65775 1.58815,1.35571 1.90866,1.55164c2.01758,1.23285 4.61612,-0.83582 3.78069,-3.00922c-0.26802,-0.69684 -0.70578,-1.15305 -3.05301,-3.18225c-3.90758,-3.37741 -4.0491,-3.66377 -1.9492,-3.9371c0.46724,-0.06122 0.99567,-0.20502 1.17419,-0.32037c0.17856,-0.11534 0.74399,-0.29587 1.25653,-0.40172c3.45743,-0.71301 4.92549,-2.70468 3.51469,-4.76746c-0.97859,-1.43074 -2.13609,-1.50975 -5.8114,-0.39737c-0.74359,0.22516 -2.17506,0.63321 -3.18109,0.90657c-1.006,0.27336 -2.10506,0.61066 -2.44266,0.7493c-0.86087,0.35397 -1.66209,0.32629 -1.98618,-0.06873c-0.14471,-0.17654 -1.44421,-1.33987 -2.88762,-2.58537c-1.44341,-1.24547 -2.72137,-2.35187 -2.83948,-2.45816c-0.3837,-0.34563 -0.06599,-0.83824 0.66208,-1.02704c3.98822,-1.03375 5.96208,-1.73056 6.44162,-2.2733c1.97464,-2.23422 -0.07993,-5.23396 -3.06139,-4.47038c-2.14641,0.54945 -2.88402,0.75922 -3.11148,0.88365c-0.13123,0.07187 -0.63223,0.22121 -1.11337,0.3318c-0.48111,0.1106 -1.59053,0.41121 -2.46529,0.66756c-1.92097,0.56331 -2.64186,0.75172 -2.89436,0.75645c-0.18929,0.00397 -1.614,-1.11472 -2.83156,-2.22273c-2.99138,-2.72325 -3.84868,-3.11627 -5.27182,-2.41908m-44.0867,0.53883c-0.37894,0.17061 -0.80838,0.44756 -0.95432,0.61542c-0.22745,0.2607 -2.50468,2.21642 -4.30676,3.69893c-0.54117,0.44516 -1.51219,0.49535 -2.00366,0.1039c-0.08748,-0.06992 -0.69585,-0.26903 -1.35193,-0.44283c-0.6557,-0.1738 -1.69351,-0.46333 -2.30589,-0.64348c-0.61234,-0.18013 -1.57384,-0.43689 -2.13608,-0.5704c-0.56265,-0.1339 -1.09944,-0.30614 -1.1929,-0.38315c-0.29544,-0.24255 -2.19728,-0.51353 -2.886,-0.41084c-1.66052,0.2473 -2.77586,2.62529 -1.88159,4.01057c0.38292,0.59331 1.20482,1.27513 1.54599,1.28261c0.15866,0.00357 0.62389,0.14378 1.03384,0.31207c0.40996,0.16827 1.12451,0.38159 1.58815,0.47401c0.46361,0.09244 1.05054,0.27493 1.3042,0.40529c0.25372,0.13037 0.72012,0.23701 1.03624,0.23701c1.01555,0 1.66687,0.8161 0.97102,1.21666c-0.202,0.11653 -2.03748,1.69937 -2.62796,2.26659c-3.38107,3.24702 -3.48683,3.28493 -6.53668,2.33217c-4.19742,-1.31145 -6.85637,-2.00984 -7.67946,-2.01773c-1.92732,-0.01779 -3.14288,1.84949 -2.47528,3.8024c0.27878,0.81653 1.01518,1.34386 2.5202,1.80524c0.74358,0.22792 1.78142,0.5471 2.30627,0.70947c0.52487,0.16231 1.24062,0.34407 1.59052,0.40405c1.25375,0.21532 1.65692,0.78529 0.89787,1.26921c-0.23141,0.14772 -0.63544,0.46373 -0.89787,0.70235c-0.26242,0.23854 -1.12132,1.00017 -1.90862,1.69225c-4.03876,3.55078 -4.46225,4.69791 -2.33092,6.31271c1.33284,1.00967 2.21518,0.73752 4.71671,-1.45523c5.21138,-4.5675 4.77994,-4.22626 5.00342,-3.95847c0.19205,0.22992 0.27992,0.65021 0.71056,3.40308c0.57458,3.67325 0.54875,3.58438 1.25891,4.35782c0.76306,0.83112 1.50067,1.07248 2.63432,0.86191c1.88318,-0.34918 2.54602,-2.2038 1.83586,-5.13873c-0.12605,-0.52142 -0.3356,-1.69461 -0.46564,-2.60712c-0.13002,-0.91251 -0.34355,-2.29895 -0.47398,-3.08113c-0.4859,-2.90889 -0.65489,-2.58656 2.9381,-5.60841c0.56784,-0.4772 1.06805,-0.90378 1.1118,-0.94801c1.94958,-1.96048 2.54486,-2.16313 2.54486,-0.86591c0,0.37212 0.14157,1.37506 0.3141,2.22829c0.17297,0.85362 0.35988,1.98062 0.41554,2.50403c0.33958,3.1933 3.98547,4.17096 5.4265,1.45483c0.435,-0.81967 0.43858,-1.02188 0.05685,-3.09532c-0.16978,-0.92041 -0.4243,-2.49136 -0.56622,-3.49075c-0.14195,-0.99937 -0.32327,-2.0675 -0.40318,-2.37366c-0.65332,-2.50598 -0.50978,-2.87411 1.9138,-4.90451c2.97429,-2.49176 3.41289,-3.06848 3.30591,-4.34831c-0.1487,-1.78191 -1.9675,-2.8532 -3.59659,-2.11884m21.60376,7.44283c-1.37141,0.53764 -1.62431,1.4039 -1.6283,5.57289c-0.00357,3.85771 0.2032,3.46307 -2.77629,5.29637c-0.94672,0.58264 -3.9099,2.46411 -5.17755,3.28769c-2.41524,1.56902 -2.8037,3.83879 -0.86446,5.05504c1.39212,0.87299 2.22633,0.77026 4.16678,-0.51233c0.71774,-0.47446 1.3448,-0.86273 1.3929,-0.86273c0.04855,0 0.65532,-0.37921 1.34837,-0.84256c1.98459,-1.32724 1.91222,-1.4588 1.91063,3.47733c-0.00159,4.49527 -0.03618,4.67776 -0.98015,5.17111c-0.67198,0.35117 -3.74969,2.25787 -4.06023,2.51505c-0.13759,0.11456 -1.00203,0.67786 -1.92056,1.25262c-2.84229,1.77759 -3.50356,3.03568 -2.5023,4.75995c1.13206,1.95013 2.71385,1.81387 6.32315,-0.54553c1.83905,-1.20203 2.5186,-1.56781 2.789,-1.50027l0.35745,0.08926l0.0195,3.979c0.02187,4.43875 0.03859,4.57071 0.66841,5.33624c1.05969,1.28775 3.31506,1.0784 4.16919,-0.38632c0.12248,-0.21017 0.21075,-1.84595 0.26363,-4.8804c0.09898,-5.67834 -0.1344,-5.40741 2.93135,-3.40503c1.18932,0.77658 2.21043,1.41217 2.26929,1.41217c0.05885,0 0.25488,0.13229 0.43541,0.29428c1.84935,1.65628 4.85429,0.15839 4.67297,-2.32944c-0.08784,-1.20831 -0.36743,-1.53656 -2.47247,-2.90454c-0.94197,-0.61267 -2.12694,-1.38687 -2.63272,-1.72107c-0.50539,-0.3342 -0.95792,-0.60754 -1.00525,-0.60754c-0.04729,0 -0.79128,-0.46216 -1.65375,-1.02704c-0.86247,-0.56485 -1.64301,-1.02704 -1.73485,-1.02704c-0.62865,0 -0.80998,-1.14554 -0.80998,-5.11783l0,-3.86639l0.35788,-0.05847c0.39444,-0.06396 1.36388,0.42505 2.58461,1.30472c3.02875,2.18167 4.30157,2.61975 5.63167,1.93756c1.50345,-0.77063 1.98854,-2.12 1.28674,-3.57919c-0.39645,-0.82361 -0.64178,-1.02666 -3.12657,-2.58105c-7.47392,-4.67618 -6.73233,-3.78975 -6.72357,-8.03856c0.00714,-3.42793 -0.04692,-3.71669 -0.83066,-4.44154c-0.69823,-0.64584 -1.79451,-0.85283 -2.67926,-0.50641" fill="#1c1a1b" fill-rule="evenodd" stroke="null"/>
  <g stroke="null" id="svg_1">
   <g stroke="null" id="svg_5">
    <path stroke="null" fill-rule="evenodd" fill="#1c1a1b" d="m290.29462,349.6416c-2.13181,0.47687 -2.18292,0.61978 -2.28168,6.36319c-0.09241,5.39514 -0.04758,5.26654 -1.51099,4.30386c-2.25452,-1.48309 -3.62589,-2.40884 -3.91464,-2.64377c-2.5173,-2.04575 -6.02829,1.12372 -4.2081,3.79868c0.26242,0.38608 2.28403,2.03384 2.49448,2.03384c0.05746,0 0.50119,0.27023 0.98624,0.60046c0.48468,0.33023 1.34186,0.90891 1.90442,1.28595c0.56253,0.37701 1.53696,1.03293 2.16562,1.45804c0.62863,0.42468 1.30841,0.83826 1.51062,0.91833c0.82022,0.32568 0.86545,9.37286 0.04718,9.37286c-0.17426,0 -2.28674,-1.37463 -4.31744,-2.8093c-2.5574,-1.80713 -5.0708,-0.75571 -5.0708,2.12091c0,1.40588 0.46579,1.80264 7.71045,6.57141c2.32849,1.53235 2.15933,1.1225 2.18375,5.28833c0.02673,4.56674 0.55667,5.56311 2.86588,5.38855c2.01141,-0.15195 2.3371,-0.98404 2.34225,-5.98694l0.00394,-3.47382l1.14084,-0.78857c0.62741,-0.43369 1.40631,-0.95898 1.7309,-1.16721c0.80566,-0.51752 1.49921,-0.97836 3.34814,-2.22281c0.8678,-0.58447 1.75296,-1.15738 1.96695,-1.27362c2.70535,-1.46582 1.98425,-5.75406 -0.96774,-5.75406c-0.55624,0 -2.02045,0.66452 -2.33478,1.06003c-0.11133,0.14005 -0.26236,0.25424 -0.33636,0.25424c-0.07355,0 -0.9386,0.54996 -1.92169,1.22226c-2.09082,1.42929 -2.57553,1.62109 -2.65302,1.05106c-0.02835,-0.21115 -0.03183,-2.28647 -0.00745,-4.61191l0.0444,-4.22791l0.9783,-0.70065c1.30017,-0.93149 2.57556,-1.78824 5.22702,-3.51242c3.25253,-2.11517 3.66208,-2.62567 3.50192,-4.36588c-0.21793,-2.37021 -2.45276,-3.18015 -4.7435,-1.71964c-2.73523,1.74347 -3.32648,2.13403 -3.40045,2.24536c-0.08334,0.12524 -1.34421,0.81976 -1.48859,0.81976c-0.04678,0 -0.08496,-1.94101 -0.08496,-4.31372c0,-4.54001 -0.05905,-5.06982 -0.64359,-5.77173c-0.26791,-0.32159 -1.8537,-1.05884 -1.9422,-0.90274c-0.00589,0.01068 -0.15225,0.0509 -0.32532,0.08954m36.49991,21.22891c-1.63727,0.77661 -2.05624,2.8002 -1.25095,6.04407c0.11603,0.46698 0.25885,1.46497 0.31741,2.2178c0.05829,0.75244 0.20343,1.73816 0.32263,2.18994c0.34064,1.2937 0.50589,3.13864 0.31274,3.49719c-0.13495,0.25095 -2.65778,2.70535 -3.91501,3.80896c-0.15738,0.138 -0.51141,0.46207 -0.7868,0.71954c-1.57947,1.47858 -1.99567,1.51349 -1.99567,0.168c0,-0.29327 -0.07593,-0.74133 -0.16916,-0.99557c-0.0928,-0.25421 -0.26987,-1.31018 -0.39337,-2.3468c-0.35605,-2.98877 -0.68256,-3.68903 -1.99298,-4.27759c-2.51257,-1.12863 -4.28003,1.12085 -3.57745,4.55194c0.08896,0.43375 0.26242,1.52783 0.38593,2.43143c0.12311,0.90353 0.36746,2.60391 0.54288,3.77853c0.47247,3.1629 0.60501,2.81876 -1.95947,5.09283c-0.50946,0.45178 -1.42209,1.31183 -2.02832,1.91104l-1.1019,1.08963l0.01022,1.2038l0.01065,1.2038l0.74588,0.7048c1.06604,1.0079 2.7659,0.99146 3.62622,-0.03491c0.08655,-0.10349 0.65308,-0.63376 1.25888,-1.17874c0.60583,-0.54498 1.45554,-1.33807 1.88824,-1.76239c1.30847,-1.28345 1.68494,-1.42188 2.9111,-1.07028c0.56253,0.16144 1.52872,0.43698 2.14713,0.61276c0.61884,0.17581 1.1951,0.36475 1.28168,0.42059c0.08615,0.05542 0.60696,0.207 1.15695,0.33679c0.55035,0.12936 1.8446,0.49695 2.87607,0.81689c2.42761,0.75284 3.02481,0.6481 4.09915,-0.7171c0.73288,-0.93109 0.86349,-1.93076 0.37607,-2.87952c-0.58731,-1.14383 -1.06097,-1.42804 -3.67587,-2.20346c-4.55188,-1.35043 -4.53183,-1.33975 -3.79462,-2.04782c1.21875,-1.17096 3.06808,-2.87909 4.18057,-3.86234c0.65338,-0.57706 1.24429,-1.14999 1.31354,-1.27322c0.18604,-0.33102 1.69196,-0.28131 2.69983,0.08832c0.46814,0.17166 1.15698,0.36551 1.53027,0.43042c0.37375,0.06445 0.85641,0.21112 1.07281,0.32529c0.21631,0.11417 0.71201,0.26163 1.10144,0.32733c0.3895,0.06613 1.00513,0.25955 1.36823,0.43002c0.3631,0.17084 0.80331,0.31049 0.978,0.31049c0.17465,0 0.64984,0.11786 1.05624,0.26166c2.50351,0.88751 4.56531,-0.92661 3.87881,-3.41263c-0.37881,-1.3718 -1.76358,-2.15585 -5.33594,-3.02081c-0.97839,-0.23697 -2.41739,-0.80908 -2.41739,-0.96146c0,-0.11584 0.53815,-0.65796 2.13373,-2.14886c0.77383,-0.72284 1.4422,-1.35162 1.48544,-1.39725c0.04324,-0.04559 0.69467,-0.66122 1.44763,-1.3681c1.23215,-1.15695 1.37967,-1.35776 1.47333,-2.01041c0.46533,-3.23846 -2.45242,-4.39957 -4.96777,-1.97678c-5.35797,5.16104 -5.69351,5.40744 -5.87723,4.31824c-0.0484,-0.28751 -0.15311,-0.89249 -0.23291,-1.34427c-0.07983,-0.45178 -0.26117,-1.6716 -0.40317,-2.71069c-0.40524,-2.96576 -0.93204,-3.98926 -2.26834,-4.40735c-0.82254,-0.25711 -1.09399,-0.24026 -1.8454,0.11624m-75.57657,0.70065c-0.86389,0.44647 -1.40991,1.30484 -1.59836,2.51193c-0.08102,0.52036 -0.18414,1.06827 -0.22858,1.21774c-0.04486,0.14911 -0.18451,1.09418 -0.31036,2.09918c-0.39655,3.16782 -0.63019,3.44421 -1.87567,2.21906c-0.4469,-0.43985 -1.09601,-1.04852 -1.4422,-1.35205c-0.34616,-0.30392 -1.38232,-1.26746 -2.30289,-2.14148c-2.3356,-2.2178 -4.10934,-2.55542 -5.12863,-0.97665c-1.06647,1.65228 -0.78876,2.70578 1.20889,4.58932c2.55151,2.40552 3.80252,3.55017 4.02518,3.68201c0.11722,0.06943 0.36346,0.34665 0.54718,0.61566l0.33398,0.48956l-0.44333,0.17661c-0.68768,0.27356 -3.47717,1.13113 -4.61057,1.41739c-2.17465,0.54953 -3.23129,1.939 -2.83948,3.73297c0.44415,2.03302 2.10974,2.64209 4.80368,1.7558c1.23761,-0.40741 2.77145,-0.86865 4.40598,-1.3262c0.60583,-0.16962 1.38474,-0.41687 1.73093,-0.54953c1.35165,-0.51913 2.142,-0.513 2.83475,0.02094c1.57437,1.21411 5.92642,5.44525 5.84933,5.68674c-0.05313,0.16721 -2.04483,0.88467 -2.50708,0.90317c-0.26004,0.01071 -0.8887,0.207 -3.26593,1.02063c-2.1853,0.74789 -2.96222,2.6228 -1.82849,4.41147c0.84976,1.34055 1.93353,1.55539 4.26752,0.84607c3.12665,-0.94958 5.71597,-1.72168 7.2659,-2.16608c1.23566,-0.35446 1.57043,-0.30188 2.27576,0.35773c0.22818,0.21317 0.68848,0.63782 1.02286,0.94379c0.33435,0.306 0.92639,0.86292 1.31589,1.23792c0.38947,0.37457 1.13062,1.03748 1.64673,1.47284l0.93863,0.79141l1.09167,-0.06448c1.55661,-0.09198 2.30133,-0.93927 2.30206,-2.6199l0.00043,-1.09088l-0.83243,-0.88055c-0.45789,-0.48465 -1.07788,-1.10275 -1.37766,-1.37384c-0.30014,-0.27106 -1.13687,-1.04648 -1.85956,-1.72336l-1.3147,-1.23047l0.10858,-1.31595c0.05939,-0.72366 0.20178,-1.87036 0.31628,-2.54807c0.11447,-0.67767 0.29266,-1.82355 0.39615,-2.54639c0.10342,-0.72287 0.28714,-1.89545 0.40875,-2.60559c0.47473,-2.77805 0.13211,-3.97897 -1.34109,-4.69937c-2.31549,-1.13232 -3.86548,0.41769 -4.26553,4.26566c-0.0799,0.76807 -0.25293,1.82523 -0.38474,2.3493c-0.13177,0.52365 -0.23959,1.12451 -0.23959,1.33524c0,0.97049 -0.94257,0.51584 -2.87054,-1.38452c-0.22662,-0.22385 -1.45435,-1.38287 -3.1676,-2.99203c-0.74353,-0.69778 -0.80603,-1.3989 -0.33832,-3.80115c0.12549,-0.64606 0.30057,-1.7291 0.38907,-2.4068c0.0881,-0.67764 0.2612,-1.8371 0.38474,-2.57678c0.19708,-1.18451 0.31946,-3.04504 0.2695,-4.10507c-0.06686,-1.41492 -2.32535,-2.41788 -3.76712,-1.67285m23.95554,18.00894c-0.12122,0.08502 -0.168,2.46921 -0.15738,8.04175l0.01489,7.92102l1.96698,1.99277c1.08188,1.09619 2.92288,2.95834 4.09131,4.13837c1.16837,1.1796 3.23758,3.28815 4.59833,4.68539c1.68491,1.73035 2.55078,2.50989 2.71439,2.44455c0.30963,-0.12402 0.36819,-15.47891 0.06137,-16.09415c-0.09833,-0.1976 -0.61172,-0.79724 -1.14081,-1.33319c-1.74902,-1.77142 -7.21951,-7.35016 -9.46738,-9.65506c-2.1947,-2.25024 -2.3497,-2.37393 -2.6817,-2.14145m26.59357,3.61755c-1.82532,1.87161 -4.69629,4.8078 -6.37961,6.52457c-1.68332,1.7168 -3.14716,3.34323 -3.25293,3.61429c-0.14362,0.36923 -0.1814,2.41046 -0.1503,8.13211l0.04129,7.63925l0.34503,0c0.31787,0 2.25488,-1.9209 11.95511,-11.85358l1.46854,-1.50363l0,-7.98383l0,-7.98386l-0.35403,0.00574c-0.24545,0.00372 -1.37338,1.05063 -3.6731,3.40894m8.06058,16.17056c-0.43433,0.09406 -1.13455,0.74789 -3.50751,3.27502c-1.63058,1.73691 -3.70847,3.94858 -4.61722,4.91541c-4.94293,5.25797 -5.30917,5.70685 -4.88113,5.98285c0.31586,0.2037 14.77963,0.10391 15.1561,-0.10474c0.1908,-0.10556 0.87766,-0.7594 1.52676,-1.45267c1.20456,-1.28677 10.93668,-11.70615 11.28598,-12.08276c0.4949,-0.53394 -0.13376,-0.58691 -7.33319,-0.61896c-3.89774,-0.01721 -7.33124,0.02136 -7.62979,0.08585m-53.16788,0.38687c-0.31866,0.33847 0.18607,0.966 4.09164,5.08588c2.3147,2.4425 5.16129,5.46246 6.32492,6.71103c1.16364,1.24899 2.27341,2.33328 2.46536,2.40924c0.19202,0.07639 3.60461,0.13965 7.58304,0.14047c8.63406,0.00165 8.38666,0.05872 6.77808,-1.55862c-0.53104,-0.53394 -1.08063,-1.11633 -1.2207,-1.29459c-0.14041,-0.17786 -1.85516,-2.02606 -3.81033,-4.10712c-1.95557,-2.08066 -4.29266,-4.57825 -5.19354,-5.54959l-1.63806,-1.76602l-6.94058,0c-3.81708,0 -7.25098,-0.04398 -7.63098,-0.09778c-0.38,-0.05377 -0.7439,-0.04147 -0.80884,0.0271m-13.88196,1.96936c-2.08453,0.81732 -2.45081,2.90005 -0.92761,5.27191c0.38281,0.59598 0.88556,1.42603 1.11685,1.84412c0.23129,0.41812 0.46182,0.79721 0.5126,0.84238c0.44061,0.39346 1.0751,1.71927 0.94452,1.97391c-0.15897,0.30966 -6.60815,0.48749 -8.1778,0.22546c-0.72229,-0.12076 -0.50592,0.15976 -2.81631,-3.6434c-3.05231,-5.02386 -3.5043,-5.71964 -3.87131,-5.95944c-1.46735,-0.95822 -3.49411,-0.39758 -4.10779,1.13641c-0.50906,1.27158 -0.10425,2.67499 1.42761,4.95074c0.30368,0.45096 0.55231,0.86084 0.55231,0.91052c0,0.11377 0.60699,1.02927 0.99371,1.49872c0.1601,0.19424 0.26752,0.52692 0.2388,0.73926l-0.05234,0.38568l-4.15659,0.04639c-4.6239,0.05136 -4.87924,0.10309 -5.63882,1.14261c-0.79623,1.09006 -0.71326,2.28973 0.22891,3.31036l0.77539,0.8399l4.67584,0c4.05859,0 4.68802,0.03326 4.76868,0.25217c0.09558,0.25998 -0.40634,1.19232 -2.0181,3.74899c-0.5043,0.79965 -0.91699,1.52045 -0.91699,1.60178c0,0.08093 -0.15775,0.31171 -0.35089,0.5134c-0.57242,0.5976 -0.60504,2.38992 -0.05978,3.24997c1.22385,1.93115 3.4866,1.77673 4.85089,-0.33063c0.61725,-0.95367 2.42368,-3.9071 3.93979,-6.44202c0.49805,-0.83252 1.11169,-1.75702 1.36346,-2.05399l0.45795,-0.53967l3.98663,0.00247c5.00589,0.00327 4.8898,-0.08423 3.26315,2.46179c-1.3403,2.0975 -1.85165,2.95715 -1.94885,3.27585c-0.05624,0.18604 -0.16602,0.33844 -0.24353,0.33844c-0.69791,0 -0.49762,2.57513 0.2691,3.46106c1.38867,1.60468 3.36505,1.24039 4.69073,-0.86453c0.41586,-0.66 0.88712,-1.40054 1.04761,-1.64532c0.16013,-0.24478 0.29153,-0.47931 0.29153,-0.52081c0,-0.04187 0.32019,-0.58075 0.71124,-1.19803c0.95871,-1.51181 0.94531,-1.49005 1.58221,-2.51807c0.30801,-0.49698 0.69003,-1.16232 0.84894,-1.47858c0.65695,-1.30811 0.59598,-1.29047 4.69943,-1.34631l3.66989,-0.05011l0.52679,-0.60043c1.32297,-1.50775 0.80722,-3.88251 -0.95395,-4.39301c-0.34109,-0.09897 -1.93039,-0.18442 -3.53149,-0.19016c-4.1066,-0.01434 -4.19156,-0.04022 -4.8269,-1.46994c-0.11209,-0.25302 -2.29816,-3.78061 -3.38,-5.45425c-0.33279,-0.51547 -0.60501,-1.00296 -0.60501,-1.08347c0,-0.08093 -0.13535,-0.27478 -0.30017,-0.43085c-0.16522,-0.15607 -0.38199,-0.48914 -0.4819,-0.74051c-0.35559,-0.897 -2.02557,-1.47983 -3.06842,-1.07074m107.94156,0.54419c-0.70221,0.45547 -3.38315,4.36014 -3.38315,4.92734c0,0.08051 -0.1058,0.23819 -0.23486,0.35034c-0.12936,0.11212 -0.46103,0.62015 -0.73721,1.12906c-0.27612,0.50888 -0.54678,0.96228 -0.6019,1.00748c-0.05466,0.04517 -0.36581,0.53638 -0.69119,1.09125c-1.08334,1.84903 -0.63254,1.70157 -5.20255,1.70157c-3.9166,0 -4.49133,-0.04517 -4.49133,-0.35199c0,-0.12894 1.05896,-1.918 2.48819,-4.20404c1.57315,-2.51559 1.66205,-3.79208 0.35049,-5.02914c-1.75098,-1.65149 -3.39691,-0.94919 -5.28561,2.25562c-0.48505,0.82349 -1.33594,2.23672 -1.89056,3.14029c-0.55429,0.90356 -1.1456,1.90652 -1.31354,2.22894c-0.168,0.32199 -0.41699,0.68259 -0.5531,0.80048c-0.13617,0.11789 -0.2475,0.30722 -0.2475,0.42059c0,0.56717 -0.47833,0.65631 -3.99683,0.74377c-4.09283,0.10184 -4.43436,0.20328 -5.06729,1.50693c-0.45789,0.94379 -0.47006,1.35205 -0.06842,2.28723c0.61533,1.43341 0.92053,1.52826 5.2132,1.62274c2.05505,0.04517 3.7652,0.11911 3.80014,0.16428c0.26675,0.34421 0.96069,1.43008 1.45679,2.27988c0.1731,0.29654 0.8812,1.45474 1.57352,2.57391c0.69241,1.1192 1.59329,2.57684 2.00159,3.23932c1.87296,3.03763 4.97681,2.88647 5.47287,-0.26657c0.16519,-1.05182 -0.05472,-1.61121 -1.60855,-4.09439c-0.32697,-0.522 -0.59448,-0.99554 -0.59448,-1.05225c0,-0.05627 -0.17697,-0.34457 -0.39337,-0.64111c-0.21634,-0.29611 -0.3934,-0.6058 -0.3934,-0.68793c0,-0.08258 -0.14471,-0.28671 -0.32175,-0.45386c-0.94537,-0.89328 -0.61526,-0.97546 4.12228,-1.02264l4.35129,-0.04398l0.44812,0.65427c0.24625,0.35941 0.73132,1.14096 1.07748,1.73648c0.34619,0.59555 1.07867,1.79977 1.62784,2.67538c0.54919,0.87607 1.11566,1.80591 1.25888,2.06589c0.14316,0.26038 0.34338,0.62347 0.44489,0.80667c1.55588,2.81296 4.47327,3.04376 5.54681,0.43863c0.57159,-1.38736 0.22736,-2.1936 -3.17468,-7.43842c-0.59595,-0.91879 -0.53143,-0.93356 4.07278,-0.93356c4.1904,0 4.20221,-0.00082 4.86783,-0.40826c1.78009,-1.08917 1.67938,-3.80606 -0.17352,-4.68744c-0.63019,-0.29941 -1.03262,-0.32571 -5.02591,-0.32571c-3.50748,0 -4.35641,-0.04269 -4.42252,-0.2226c-0.09479,-0.25836 0.22147,-0.84894 1.72894,-3.22739c2.06137,-3.25244 2.34738,-4.19421 1.68414,-5.55118c-0.67548,-1.38165 -2.52008,-1.98047 -3.71481,-1.20587m-53.73239,15.0477c-0.2132,0.26819 -0.40005,0.05872 8.15222,9.13834c1.93314,2.05234 3.62433,3.89478 3.75809,4.09399c0.63647,0.94913 0.88589,0.97665 8.77728,0.97791c3.98117,0.00082 7.3363,-0.06366 7.45596,-0.14291c0.32452,-0.21442 0.29144,-0.25305 -5.33554,-6.25397c-2.81082,-2.99695 -5.62006,-6.01648 -6.24353,-6.71063l-1.13293,-1.26129l-7.61646,-0.04556c-6.65814,-0.03986 -7.6416,-0.01401 -7.81509,0.2041m-27.22736,0.41077c-0.30295,0.17288 -2.11874,2.00055 -4.03537,4.06192c-1.91699,2.06091 -4.69629,5.03204 -6.17624,6.60178c-2.66284,2.8241 -2.87845,3.11981 -2.49487,3.42001c0.36743,0.28754 14.48425,0.28342 15.0098,-0.00452c0.56686,-0.31049 0.84579,-0.59143 4.76001,-4.79547c1.76477,-1.89545 4.35172,-4.66568 5.74902,-6.15659c1.95123,-2.08194 2.52792,-2.79327 2.48663,-3.0668l-0.05389,-0.35608l-7.34735,-0.00946c-6.94727,-0.00861 -7.37686,0.00821 -7.89774,0.30521m22.54126,4.12515l-0.35403,0.14133l0.00397,7.35709c0.00198,4.04636 0.06451,7.63187 0.13928,7.96741c0.11285,0.50766 0.79306,1.27982 4.04837,4.59714c2.15182,2.19238 5.04245,5.15237 6.42365,6.57715c1.77103,1.82684 2.61761,2.59033 2.87177,2.59033l0.36032,0l0,-7.5994c0,-4.17941 -0.06256,-7.82697 -0.13885,-8.10501c-0.12628,-0.45877 -1.75604,-2.20923 -7.02316,-7.5419c-0.5354,-0.54214 -2.09952,-2.14227 -3.47519,-3.55557c-2.2121,-2.27203 -2.54291,-2.55338 -2.85608,-2.42853m-4.94138,0.93231c-0.68411,0.75821 -3.58615,3.72803 -9.30484,9.52115c-1.53424,1.55414 -2.85602,3.00806 -2.93707,3.23026c-0.0838,0.23083 -0.14279,3.57813 -0.13727,7.79449c0.00549,4.06485 -0.03622,7.46881 -0.09247,7.56409c-0.05664,0.0957 0.06021,0.28506 0.25925,0.42142c0.35287,0.24149 0.43231,0.17578 3.12628,-2.58011c1.52045,-1.55536 4.47519,-4.57367 6.56647,-6.70734l3.80252,-3.87958l0,-7.97235c0,-8.19125 0.00119,-8.17236 -0.53815,-8.17236c-0.02246,0 -0.35757,0.35114 -0.74472,0.78033m23.99805,14.26776c-1.02127,0.5257 -1.23605,0.94012 -1.23605,2.38254l0,1.30444l0.94412,0.89905c0.51929,0.49448 1.33362,1.28061 1.8096,1.74719c0.47601,0.46655 1.24661,1.14874 1.71204,1.51593l0.84695,0.66739l-0.10309,1.39685c-0.1015,1.38037 -0.47522,3.95514 -0.99054,6.82767c-0.72504,4.04102 0.03421,5.9964 2.3277,5.9964c1.97836,0 2.73096,-1.30237 3.21756,-5.5701c0.11725,-1.03043 0.28754,-1.95087 0.37802,-2.04535c0.09048,-0.09445 0.16443,-0.36963 0.16443,-0.61154c0,-1.17545 0.60623,-0.79269 4.3273,2.73331c0.69235,0.65591 1.53818,1.4494 1.87924,1.76358l0.62076,0.57092l-0.33789,2.11353c-0.18573,1.16232 -0.3804,2.5571 -0.43234,3.09924c-0.05191,0.54214 -0.19159,1.35535 -0.31,1.8071c-1.23883,4.72568 -0.2074,7.37848 2.71634,6.98666c1.72696,-0.23123 2.24942,-1.47693 2.87769,-6.86179c0.14752,-1.26373 0.27063,-1.7525 0.49527,-1.96442c0.3804,-0.3598 0.07672,-0.60623 4.97522,4.03522c0.72147,0.68384 1.5712,1.40958 1.88824,1.61328c1.99606,1.28183 4.56683,-0.86905 3.74036,-3.12878c-0.26517,-0.72449 -0.69824,-1.19888 -3.02042,-3.30872c-3.86584,-3.5116 -4.00592,-3.80939 -1.92844,-4.0936c0.46222,-0.06366 0.98505,-0.21317 1.16162,-0.33307c0.1767,-0.1199 0.73608,-0.30762 1.24313,-0.41766c3.42053,-0.74133 4.87296,-2.81216 3.4772,-4.95691c-0.96814,-1.48761 -2.11331,-1.56973 -5.74939,-0.41318c-0.73563,0.2341 -2.15189,0.65839 -3.14713,0.9426c-0.9953,0.28421 -2.08261,0.63498 -2.41663,0.77908c-0.85168,0.36801 -1.64438,0.33926 -1.96503,-0.07144c-0.14313,-0.18356 -1.42877,-1.39313 -2.85678,-2.68811c-1.42801,-1.29495 -2.69232,-2.44534 -2.80914,-2.55588c-0.37964,-0.35938 -0.06534,-0.87155 0.655,-1.06784c3.94568,-1.07486 5.89847,-1.79935 6.37286,-2.36368c1.95358,-2.32297 -0.07907,-5.44193 -3.02869,-4.64804c-2.12357,0.57129 -2.8533,0.78943 -3.07831,0.91879c-0.12982,0.07474 -0.62549,0.22998 -1.10147,0.345c-0.47601,0.11499 -1.57358,0.42755 -2.43906,0.69409c-1.90045,0.58569 -2.61368,0.78162 -2.86353,0.7865c-0.18719,0.00412 -1.59674,-1.159 -2.80127,-2.31107c-2.95953,-2.83145 -3.80765,-3.24011 -5.21558,-2.5152m-43.61639,0.56021c-0.37488,0.17743 -0.79977,0.46536 -0.94412,0.63989c-0.22504,0.27106 -2.47794,2.3045 -4.26077,3.84592c-0.5354,0.46286 -1.49609,0.51505 -1.98233,0.10803c-0.08658,-0.07272 -0.68845,-0.27972 -1.33749,-0.46042c-0.64868,-0.18073 -1.67548,-0.48178 -2.28128,-0.66904c-0.6058,-0.18732 -1.55707,-0.45428 -2.11331,-0.59311c-0.55664,-0.13922 -1.08771,-0.3183 -1.18018,-0.39838c-0.2923,-0.2522 -2.17386,-0.53394 -2.85522,-0.42712c-1.64279,0.25711 -2.74625,2.72958 -1.86154,4.16992c0.37888,0.61691 1.19202,1.32581 1.52954,1.33362c0.15695,0.00369 0.61725,0.14948 1.02283,0.32446c0.40558,0.17496 1.11249,0.39673 1.5712,0.49283c0.45871,0.09613 1.03934,0.28586 1.29031,0.42142c0.25098,0.13553 0.7124,0.24643 1.02518,0.24643c1.0047,0 1.64911,0.84854 0.96066,1.26498c-0.19986,0.12115 -2.01578,1.76691 -2.59991,2.35666c-3.345,3.37607 -3.44965,3.4155 -6.46695,2.42487c-4.15262,-1.36356 -6.7832,-2.08969 -7.59753,-2.09793c-1.90677,-0.01846 -3.10934,1.92297 -2.44888,3.95352c0.27579,0.84894 1.00433,1.39725 2.49332,1.87695c0.73566,0.237 1.76242,0.56882 2.28168,0.73764c0.51929,0.16882 1.22739,0.35773 1.57355,0.42017c1.24039,0.22385 1.63925,0.8165 0.88828,1.31961c-0.22891,0.15363 -0.62863,0.48218 -0.88828,0.73026c-0.25961,0.24808 -1.10934,1.03992 -1.88828,1.75946c-3.99567,3.69193 -4.41461,4.88464 -2.30603,6.56363c1.3186,1.04977 2.19159,0.76678 4.66638,-1.51306c5.15576,-4.74908 4.72894,-4.3942 4.95001,-4.11578c0.19,0.23907 0.27698,0.67606 0.703,3.5383c0.56845,3.81921 0.54288,3.72684 1.24548,4.53098c0.75488,0.86417 1.48465,1.11511 2.6062,0.89621c1.8631,-0.36307 2.51889,-2.29138 1.81628,-5.34296c-0.12476,-0.54218 -0.33203,-1.76196 -0.46069,-2.71072c-0.1286,-0.94876 -0.33987,-2.39032 -0.46893,-3.20355c-0.48068,-3.02451 -0.64789,-2.68933 2.9068,-5.8313c0.56177,-0.49612 1.05664,-0.93973 1.09995,-0.98569c1.92877,-2.03839 2.5177,-2.24908 2.5177,-0.90033c0,0.3869 0.14005,1.42972 0.31076,2.31686c0.17108,0.88754 0.35602,2.0593 0.41107,2.60352c0.33597,3.32016 3.94296,4.33667 5.36856,1.51263c0.43039,-0.8522 0.43393,-1.0625 0.05627,-3.21835c-0.16797,-0.95694 -0.41971,-2.59033 -0.56018,-3.62946c-0.14044,-1.03909 -0.31982,-2.14966 -0.3989,-2.46796c-0.64636,-2.60556 -0.50433,-2.98834 1.89334,-5.09943c2.9426,-2.59076 3.37653,-3.1904 3.27063,-4.52112c-0.14706,-1.85272 -1.94644,-2.96655 -3.5582,-2.20306m21.37329,7.73865c-1.35678,0.55899 -1.60699,1.45969 -1.6109,5.79434c-0.00357,4.01102 0.20102,3.60071 -2.74664,5.50684c-0.93668,0.6058 -3.86823,2.56201 -5.12238,3.4184c-2.38947,1.63132 -2.77377,3.99127 -0.85522,5.25589c1.37726,0.90765 2.20261,0.80087 4.12234,-0.53271c0.71005,-0.49329 1.33044,-0.89697 1.37805,-0.89697c0.048,0 0.64832,-0.39429 1.33395,-0.87607c1.96344,-1.37994 1.89185,-1.51675 1.89026,3.61551c-0.00159,4.67392 -0.0358,4.86368 -0.96967,5.37665c-0.66489,0.36508 -3.70969,2.34763 -4.01694,2.61502c-0.13611,0.11908 -0.99136,0.70474 -1.90015,1.30237c-2.81198,1.84821 -3.46619,3.15634 -2.47556,4.94907c1.11993,2.02768 2.68491,1.88602 6.25565,-0.5672c1.81946,-1.24979 2.49179,-1.63013 2.75928,-1.55988l0.3537,0.09277l0.01926,4.13715c0.02164,4.61514 0.03812,4.75235 0.66129,5.54831c1.04837,1.33893 3.27972,1.12125 4.12473,-0.40167c0.12115,-0.21848 0.20847,-1.91925 0.2608,-5.07434c0.09796,-5.90399 -0.13297,-5.62225 2.90009,-3.54031c1.17664,0.80743 2.18686,1.46826 2.24509,1.46826c0.05823,0 0.25214,0.1376 0.43076,0.30597c1.82965,1.72217 4.80249,0.1647 4.62308,-2.42197c-0.08685,-1.25635 -0.3634,-1.59766 -2.44608,-3.01996c-0.93192,-0.63702 -2.10422,-1.44202 -2.60464,-1.78946c-0.5,-0.34747 -0.94766,-0.63165 -0.99451,-0.63165c-0.04678,0 -0.78284,-0.48056 -1.63611,-1.06787c-0.85324,-0.58734 -1.62549,-1.06787 -1.71634,-1.06787c-0.62192,0 -0.80133,-1.19107 -0.80133,-5.3212l0,-4.02005l0.35403,-0.06079c0.39026,-0.06653 1.34933,0.44193 2.55707,1.3566c2.99643,2.26837 4.25568,2.72382 5.57156,2.01453c1.48743,-0.80127 1.96735,-2.20428 1.27301,-3.72147c-0.39221,-0.85632 -0.63495,-1.06741 -3.09326,-2.68356c-7.39413,-4.86203 -6.66046,-3.9404 -6.65179,-8.35803c0.00708,-3.56415 -0.04642,-3.86438 -0.82178,-4.61804c-0.69083,-0.67151 -1.77539,-0.88672 -2.6507,-0.52655" id="svg_6"/>
   </g>
  </g>
  <g stroke="null" id="svg_2">
   <g stroke="null" id="svg_4" transform="matrix(1.03872 -0.0114819 0.0115868 1.02931 -17.6677 3.72335)">
    <path stroke="null" id="svg_7" d="m482.17554,62.73002c-1.89117,0.42866 -1.93652,0.55714 -2.02411,5.72019c-0.08203,4.84996 -0.04224,4.73439 -1.34052,3.86897c-2,-1.33324 -3.21655,-2.16542 -3.47272,-2.37661c-2.23315,-1.83904 -5.34784,1.01015 -3.73309,3.41483c0.23279,0.34707 2.02625,1.82834 2.21289,1.82834c0.05096,0 0.44458,0.24294 0.87494,0.53979c0.42999,0.29684 1.19037,0.81705 1.68939,1.15599c0.49908,0.33894 1.36353,0.92856 1.9212,1.31071c0.55768,0.38176 1.16071,0.75356 1.34015,0.82555c0.72754,0.29279 0.7677,8.42577 0.04187,8.42577c-0.15466,0 -2.02869,-1.23575 -3.8302,-2.5254c-2.26874,-1.62453 -4.49841,-0.67934 -4.49841,1.9066c0,1.26381 0.41321,1.62048 6.84015,5.90739c2.06561,1.37752 1.91559,1.00905 1.93719,4.75395c0.02374,4.10526 0.49384,5.00098 2.54236,4.84406c1.78442,-0.1366 2.07336,-0.88463 2.07788,-5.382l0.00348,-3.12279l1.01208,-0.70889c0.55664,-0.38988 1.24762,-0.86211 1.53552,-1.04929c0.71466,-0.46522 1.33002,-0.87946 2.97015,-1.99818c0.7699,-0.52538 1.55511,-1.04044 1.745,-1.14491c2.39996,-1.31773 1.76025,-5.17265 -0.85852,-5.17265c-0.49341,0 -1.79236,0.59738 -2.07123,0.95293c-0.09875,0.12591 -0.23279,0.22855 -0.2984,0.22855c-0.06525,0 -0.83264,0.49437 -1.70477,1.09877c-1.85486,1.28487 -2.28479,1.45728 -2.35358,0.94482c-0.02515,-0.18977 -0.0282,-2.0554 -0.00665,-4.14587l0.03949,-3.80066l0.86792,-0.62988c1.15344,-0.83737 2.28479,-1.60754 4.63696,-3.15749c2.88544,-1.90144 3.24872,-2.36037 3.10669,-3.92472c-0.19336,-2.13071 -2.1759,-2.8588 -4.20807,-1.54588c-2.42651,1.5673 -2.95099,1.91842 -3.01666,2.01847c-0.07397,0.11261 -1.19244,0.73695 -1.3205,0.73695c-0.04156,0 -0.07544,-1.7449 -0.07544,-3.87784c0,-4.08125 -0.05237,-4.55754 -0.57092,-5.18852c-0.23767,-0.28909 -1.64447,-0.95183 -1.72296,-0.81152c-0.00519,0.0096 -0.13501,0.04578 -0.28857,0.08048m32.37988,19.08379c-1.45251,0.69817 -1.82422,2.51728 -1.1098,5.43331c0.10297,0.41979 0.22968,1.31698 0.28162,1.99374c0.0517,0.67641 0.18048,1.5625 0.28619,1.96864c0.30225,1.16302 0.44879,2.82152 0.2774,3.14381c-0.11969,0.2256 -2.35767,2.43201 -3.47308,3.42408c-0.13953,0.12405 -0.45361,0.41537 -0.69794,0.64687c-1.40118,1.32914 -1.77045,1.36052 -1.77045,0.15099c0,-0.26361 -0.06732,-0.66641 -0.15002,-0.89495c-0.08234,-0.22855 -0.23938,-1.17779 -0.349,-2.10967c-0.3158,-2.68674 -0.60547,-3.31627 -1.76794,-3.84534c-2.22894,-1.0146 -3.797,1.00758 -3.17365,4.09197c0.07886,0.38988 0.23273,1.37346 0.34229,2.18574c0.10931,0.81226 0.32599,2.34079 0.48163,3.39673c0.41913,2.8433 0.53674,2.53391 -1.73828,4.57823c-0.4519,0.40614 -1.2616,1.17924 -1.79938,1.71793l-0.97748,0.97953l0.00903,1.08215l0.0094,1.08216l0.66168,0.63357c0.9458,0.90604 2.4538,0.89127 3.21698,-0.03139c0.07678,-0.09304 0.57935,-0.56969 1.11676,-1.05964c0.53748,-0.48994 1.2912,-1.2029 1.67511,-1.58427c1.16077,-1.15379 1.49475,-1.27822 2.58252,-0.96217c0.49902,0.1451 1.3562,0.39284 1.90472,0.55086c0.54901,0.15803 1.0603,0.32787 1.13702,0.37808c0.07642,0.04984 0.53851,0.18607 1.02631,0.30273c0.48828,0.11631 1.63647,0.44675 2.55151,0.73438c2.15356,0.67676 2.68335,0.58262 3.63635,-0.64465c0.65021,-0.83701 0.76605,-1.73566 0.33362,-2.58855c-0.521,-1.02825 -0.94122,-1.28374 -3.26093,-1.98082c-4.03815,-1.21396 -4.0202,-1.20437 -3.36627,-1.84088c1.08124,-1.05262 2.72174,-2.58817 3.70868,-3.47206c0.57965,-0.51874 1.10382,-1.03378 1.16528,-1.14455c0.16504,-0.29758 1.50098,-0.25292 2.39508,0.07938c0.41522,0.15434 1.02631,0.32861 1.35742,0.38694c0.3316,0.05796 0.75983,0.18977 0.95172,0.29242c0.19202,0.10263 0.63165,0.23518 0.97717,0.29425c0.34546,0.05946 0.8916,0.23335 1.21381,0.38656c0.32202,0.1536 0.71265,0.27912 0.86755,0.27912c0.15497,0 0.57648,0.10598 0.93701,0.23521c2.22089,0.79785 4.04999,-0.83295 3.44098,-3.06778c-0.33606,-1.23317 -1.56451,-1.938 -4.73364,-2.71555c-0.86792,-0.21304 -2.14447,-0.72734 -2.14447,-0.86433c0,-0.10411 0.47742,-0.59147 1.89282,-1.93171c0.68646,-0.64983 1.27942,-1.21507 1.31775,-1.25607c0.03845,-0.04099 0.61639,-0.59442 1.2843,-1.22984c1.09308,-1.04008 1.22394,-1.22061 1.30695,-1.80728c0.4129,-2.91124 -2.17554,-3.955 -4.40692,-1.77702c-4.75317,4.63952 -5.05084,4.86105 -5.21387,3.88188c-0.04291,-0.25844 -0.13574,-0.80229 -0.20654,-1.20842c-0.07086,-0.40614 -0.23169,-1.50269 -0.35773,-2.43679c-0.35944,-2.66607 -0.82678,-3.58616 -2.01227,-3.96201c-0.72974,-0.23112 -0.97058,-0.216 -1.63702,0.10448m-67.04565,0.62988c-0.76642,0.40134 -1.25073,1.17297 -1.41791,2.25809c-0.0719,0.46778 -0.16333,0.96031 -0.20276,1.0947c-0.03979,0.13403 -0.16376,0.98357 -0.27539,1.88705c-0.35181,2.84772 -0.55902,3.0962 -1.66394,1.99484c-0.39642,-0.39543 -0.97229,-0.9426 -1.27936,-1.21544c-0.30719,-0.27322 -1.22638,-1.13939 -2.04303,-1.92506c-2.0719,-1.99374 -3.64551,-2.29724 -4.54968,-0.87799c-0.94617,1.48534 -0.69977,2.43237 1.07245,4.12556c2.26349,2.16247 3.37329,3.19146 3.5708,3.30997c0.10394,0.0624 0.32251,0.31161 0.48541,0.55344l0.29626,0.4401l-0.39331,0.15876c-0.61005,0.2459 -3.08466,1.01682 -4.09009,1.27414c-1.9292,0.49401 -2.86658,1.74306 -2.51898,3.35577c0.39398,1.82761 1.87164,2.37514 4.26141,1.57838c1.09796,-0.36626 2.45868,-0.78088 3.90869,-1.19218c0.53741,-0.15248 1.22839,-0.37474 1.53552,-0.494c1.1991,-0.46671 1.90027,-0.46114 2.51477,0.01883c1.39667,1.09138 5.25751,4.895 5.18909,5.1121c-0.04718,0.15027 -1.81403,0.79528 -2.22412,0.81189c-0.23065,0.00961 -0.78833,0.18608 -2.89728,0.91749c-1.9386,0.67234 -2.62787,2.3578 -1.62201,3.96571c0.75378,1.2051 1.71521,1.39819 3.78577,0.76056c2.77368,-0.85361 5.07074,-1.54772 6.44574,-1.94722c1.09613,-0.31863 1.39313,-0.27137 2.01886,0.32159c0.20245,0.19164 0.61072,0.57339 0.90735,0.84845c0.29663,0.27506 0.8219,0.7757 1.16736,1.1128c0.34552,0.33672 1.00299,0.93264 1.46088,1.32401l0.83264,0.71146l0.96844,-0.05798c1.38098,-0.0827 2.04156,-0.84438 2.0423,-2.3552l0.00031,-0.98061l-0.73834,-0.7916c-0.40625,-0.43567 -0.95624,-0.99134 -1.22217,-1.23502c-0.2663,-0.24367 -1.00867,-0.94073 -1.64972,-1.54919l-1.16626,-1.10616l0.09631,-1.18295c0.05267,-0.65054 0.17902,-1.68137 0.28058,-2.29057c0.10156,-0.60921 0.25958,-1.63931 0.35138,-2.28911c0.09186,-0.64983 0.25476,-1.70391 0.36267,-2.34229c0.42114,-2.49734 0.11719,-3.57693 -1.18976,-4.22453c-2.05414,-1.01791 -3.42914,0.37549 -3.78406,3.83463c-0.07086,0.69043 -0.22437,1.64079 -0.34131,2.1119c-0.11688,0.47074 -0.21252,1.01089 -0.21252,1.20031c0,0.87244 -0.83618,0.46371 -2.54657,-1.24461c-0.20093,-0.20123 -1.29016,-1.24314 -2.81,-2.6897c-0.65955,-0.62729 -0.71503,-1.25753 -0.30011,-3.41705c0.11133,-0.58076 0.2666,-1.55437 0.34515,-2.16357c0.07819,-0.60921 0.23175,-1.6515 0.34131,-2.31644c0.1748,-1.0648 0.28339,-2.73731 0.23907,-3.69025c-0.05939,-1.27193 -2.06287,-2.17355 -3.34192,-1.50378m21.25146,16.18916c-0.10748,0.07644 -0.14905,2.2197 -0.13959,7.22916l0.01324,7.12061l1.74493,1.79141c0.95972,0.9854 2.59296,2.65942 3.62939,3.72015c1.03656,1.06039 2.87219,2.95592 4.07935,4.21198c1.49469,1.5555 2.26282,2.25626 2.40802,2.19755c0.2746,-0.1115 0.3266,-13.91483 0.05438,-14.4679c-0.08722,-0.1776 -0.5426,-0.71664 -1.01202,-1.19846c-1.55157,-1.59241 -6.4046,-6.60741 -8.39868,-8.67943c-1.94696,-2.0229 -2.08447,-2.13403 -2.37903,-1.92507m23.5918,3.25201c-1.61932,1.6825 -4.16626,4.32199 -5.65955,5.8653c-1.49329,1.54329 -2.79187,3.00537 -2.88574,3.24905c-0.12744,0.33192 -0.16089,2.1669 -0.1333,7.31039l0.03662,6.86732l0.30603,0c0.28198,0 2.00037,-1.7268 10.60565,-10.6558l1.3028,-1.35168l0,-7.17709l0,-7.1771l-0.31409,0.00517c-0.21777,0.00333 -1.21826,0.94444 -3.25842,3.06445m7.15063,14.53658c-0.38525,0.08456 -1.00647,0.67233 -3.11157,2.94409c-1.44647,1.56139 -3.28986,3.5496 -4.09601,4.41872c-4.38495,4.72665 -4.7099,5.1302 -4.3302,5.37831c0.28021,0.18311 13.11139,0.0934 13.44531,-0.09416c0.16925,-0.09488 0.77863,-0.68266 1.35443,-1.30589c1.0686,-1.15674 9.70209,-10.52325 10.01196,-10.86183c0.43909,-0.47997 -0.11859,-0.5276 -6.50537,-0.55639c-3.4577,-0.0155 -6.50366,0.01919 -6.76855,0.07716m-47.16638,0.34782c-0.28265,0.30423 0.16504,0.86837 3.62982,4.57193c2.05341,2.19569 4.57867,4.91051 5.61096,6.03291c1.03229,1.12278 2.01678,2.09751 2.18707,2.16579c0.17035,0.06865 3.19781,0.12553 6.72705,0.12627c7.65955,0.00148 7.44,0.05281 6.013,-1.40115c-0.47113,-0.47997 -0.95868,-1.00352 -1.08289,-1.16374c-0.12457,-0.15987 -1.64581,-1.82133 -3.38025,-3.69212c-1.7348,-1.87041 -3.80817,-4.11559 -4.60736,-4.98878l-1.45313,-1.5876l-6.15717,0c-3.38617,0 -6.4325,-0.03951 -6.76959,-0.08788c-0.33716,-0.04836 -0.65997,-0.03729 -0.71753,0.02438m-12.315,1.77036c-1.84924,0.73473 -2.17413,2.60701 -0.82294,4.73919c0.3396,0.53574 0.78558,1.28191 0.99084,1.65778c0.2052,0.37587 0.40967,0.71663 0.45471,0.75726c0.39087,0.35371 0.9538,1.54552 0.83789,1.77443c-0.14099,0.27838 -5.86224,0.43826 -7.2547,0.20271c-0.64075,-0.10854 -0.44879,0.14361 -2.49841,-3.27528c-2.7077,-4.5162 -3.1087,-5.14165 -3.43433,-5.35725c-1.30176,-0.86138 -3.09967,-0.3574 -3.6441,1.0216c-0.45154,1.14307 -0.09247,2.40467 1.26648,4.45049c0.26941,0.40538 0.48999,0.77385 0.48999,0.81853c0,0.10227 0.53845,0.92524 0.88153,1.34724c0.14203,0.17464 0.23724,0.47369 0.21179,0.66457l-0.04639,0.34669l-3.68744,0.04173c-4.10199,0.04615 -4.32843,0.09267 -5.00238,1.02716c-0.7063,0.97986 -0.63269,2.05832 0.20319,2.97581l0.68787,0.75504l4.14801,0c3.60046,0 4.15887,0.02991 4.23041,0.22673c0.08484,0.2337 -0.36047,1.07179 -1.79028,3.37015c-0.44745,0.71884 -0.81348,1.36682 -0.81348,1.43993c0,0.07274 -0.13995,0.28023 -0.31128,0.4615c-0.50781,0.53722 -0.5368,2.14844 -0.05304,2.92157c1.08563,1.73604 3.09302,1.5972 4.30328,-0.29724c0.54755,-0.8573 2.15009,-3.51228 3.49512,-5.79108c0.44183,-0.74837 0.98621,-1.57947 1.20959,-1.84641l0.40619,-0.48515l3.53662,0.00223c4.44086,0.00293 4.33783,-0.0757 2.89484,2.21304c-1.18903,1.88554 -1.6427,2.65833 -1.72888,2.94484c-0.04987,0.16725 -0.14728,0.30421 -0.21606,0.30421c-0.61902,0 -0.44141,2.31496 0.23871,3.11133c1.23199,1.44252 2.98529,1.11505 4.16138,-0.77719c0.36884,-0.59331 0.78693,-1.25899 0.92932,-1.47905c0.14203,-0.22003 0.25861,-0.43086 0.25861,-0.46815c0,-0.03766 0.28406,-0.52206 0.63098,-1.077c0.85046,-1.35905 0.83862,-1.33949 1.40356,-2.26361c0.27332,-0.44676 0.61218,-1.04488 0.75317,-1.32916c0.58276,-1.17595 0.52869,-1.16006 4.16895,-1.21028l3.25568,-0.04504l0.46729,-0.53976c1.17365,-1.35539 0.71613,-3.49017 -0.84625,-3.9491c-0.30261,-0.08898 -1.71246,-0.16579 -3.13287,-0.17094c-3.64301,-0.01293 -3.71844,-0.03619 -4.28204,-1.32141c-0.09949,-0.22742 -2.03876,-3.39857 -2.99847,-4.90311c-0.29523,-0.46336 -0.53674,-0.90163 -0.53674,-0.97398c0,-0.07273 -0.12012,-0.247 -0.2663,-0.3873c-0.14655,-0.14031 -0.33881,-0.43974 -0.42749,-0.66568c-0.31549,-0.80637 -1.79694,-1.33028 -2.72211,-0.96255m95.75739,0.4892c-0.62299,0.40946 -3.00134,3.91956 -3.00134,4.42944c0,0.07236 -0.09387,0.21413 -0.20837,0.31493c-0.11475,0.10078 -0.40894,0.5575 -0.65393,1.01495c-0.245,0.45746 -0.48511,0.86505 -0.53394,0.90568c-0.04852,0.0406 -0.32458,0.48219 -0.61322,0.98099c-0.96106,1.6622 -0.5611,1.52965 -4.61536,1.52965c-3.47443,0 -3.98431,-0.0406 -3.98431,-0.31641c0,-0.11592 0.93945,-1.72421 2.20734,-3.77924c1.39557,-2.26141 1.47449,-3.40894 0.31091,-4.521c-1.55334,-1.4846 -3.01349,-0.85325 -4.68896,2.02771c-0.4303,0.74026 -1.18518,2.01072 -1.67719,2.823c-0.4917,0.81225 -1.01624,1.71387 -1.16516,2.00371c-0.14911,0.28945 -0.37,0.61362 -0.49072,0.7196c-0.12079,0.10596 -0.21954,0.27615 -0.21954,0.37807c0,0.50988 -0.42438,0.58999 -3.54572,0.66863c-3.63086,0.09157 -3.93372,0.18274 -4.49524,1.35463c-0.40625,0.84843 -0.41705,1.21544 -0.06073,2.05615c0.54584,1.28854 0.81665,1.37383 4.62476,1.45876c1.82306,0.0406 3.34015,0.10707 3.37115,0.14769c0.23669,0.30937 0.85229,1.28558 1.29236,2.04947c0.1535,0.26657 0.78168,1.30775 1.39587,2.31384c0.6142,1.00612 1.41333,2.31644 1.77563,2.91199c1.6615,2.73068 4.41504,2.59482 4.8551,-0.23962c0.14655,-0.94556 -0.04852,-1.44841 -1.427,-3.68066c-0.28998,-0.46925 -0.52734,-0.89496 -0.52734,-0.94591c0,-0.05058 -0.15704,-0.30977 -0.349,-0.57632c-0.19189,-0.26622 -0.34894,-0.5446 -0.34894,-0.61845c0,-0.07419 -0.12848,-0.25769 -0.28546,-0.40797c-0.83862,-0.80302 -0.54584,-0.87688 3.65692,-0.91934l3.86017,-0.03949l0.39746,0.58815c0.21857,0.32306 0.6488,1.02568 0.95599,1.56102c0.30707,0.53537 0.95691,1.61789 1.44403,2.40504c0.48724,0.78752 0.98975,1.62341 1.11676,1.85713c0.12701,0.2341 0.30463,0.56047 0.39465,0.72513c1.38031,2.52873 3.96832,2.73622 4.92078,0.39433c0.50702,-1.24719 0.20166,-1.97197 -2.81635,-6.68678c-0.52875,-0.82593 -0.4715,-0.83923 3.61298,-0.83923c3.71747,0 3.72791,-0.00073 4.31836,-0.36699c1.57916,-0.97916 1.48987,-3.42148 -0.15387,-4.21381c-0.55908,-0.26913 -0.91608,-0.29279 -4.45862,-0.29279c-3.11151,0 -3.86469,-0.03841 -3.92334,-0.20012c-0.08405,-0.23222 0.19647,-0.76314 1.53381,-2.90125c1.82867,-2.92379 2.0824,-3.77039 1.49408,-4.99026c-0.59924,-1.24202 -2.23566,-1.78033 -3.29547,-1.084m-47.66724,13.52716c-0.18915,0.24109 -0.35486,0.0528 7.23206,8.21494c1.7149,1.84497 3.21521,3.50124 3.33386,3.6803c0.56464,0.85327 0.78589,0.87799 7.78656,0.8791c3.53168,0.00073 6.50824,-0.05724 6.61432,-0.12848c0.28796,-0.19273 0.25854,-0.22745 -4.73328,-5.62199c-2.49359,-2.69414 -4.9856,-5.40857 -5.53876,-6.03252l-1.00513,-1.13387l-6.75665,-0.04099c-5.90662,-0.0358 -6.77911,-0.01254 -6.93298,0.1835m-24.15393,0.3692c-0.26874,0.15546 -1.87964,1.79843 -3.5799,3.65152c-1.70062,1.85269 -4.1662,4.52357 -5.47906,5.93468c-2.3623,2.5387 -2.55353,2.80453 -2.21326,3.07442c0.32599,0.25847 12.84924,0.25478 13.31555,-0.00406c0.50287,-0.27911 0.75024,-0.53166 4.22266,-4.3109c1.56555,-1.7039 3.86053,-4.19424 5.1001,-5.53447c1.73096,-1.87155 2.24261,-2.51103 2.20593,-2.7569l-0.04779,-0.32011l-6.51801,-0.0085c-6.16309,-0.00775 -6.54419,0.0074 -7.00623,0.27432m19.99683,3.70837l-0.31409,0.127l0.00354,6.61368c0.00171,3.63748 0.05719,6.86067 0.12347,7.16235c0.10016,0.45633 0.70361,1.15047 3.59143,4.13257c1.90894,1.97087 4.47327,4.63174 5.69861,5.91255c1.57111,1.64226 2.32214,2.32863 2.54761,2.32863l0.31964,0l0,-6.83154c0,-3.7571 -0.05548,-7.03606 -0.12323,-7.28603c-0.112,-0.4124 -1.5578,-1.98598 -6.23041,-6.77982c-0.47498,-0.48735 -1.86255,-1.9258 -3.08289,-3.19626c-1.9624,-2.04248 -2.25586,-2.29539 -2.53369,-2.18314m-4.38361,0.83809c-0.60687,0.68158 -3.18134,3.35133 -8.25458,8.55907c-1.36096,1.39709 -2.53357,2.7041 -2.60553,2.90385c-0.07428,0.20749 -0.12665,3.21655 -0.12183,7.0069c0.00488,3.65408 -0.03198,6.71411 -0.08203,6.79974c-0.05017,0.08603 0.05347,0.25624 0.23004,0.37881c0.31305,0.21709 0.38354,0.15802 2.77344,-2.31938c1.34882,-1.39821 3.97003,-4.11153 5.82526,-6.02959l3.37329,-3.48758l0,-7.16675c0,-7.36356 0.00104,-7.34657 -0.47742,-7.34657c-0.01996,0 -0.3172,0.31567 -0.66064,0.70148m21.28912,12.82603c-0.90594,0.47258 -1.09656,0.84511 -1.09656,2.1418l0,1.17261l0.83765,0.8082c0.46063,0.44453 1.18298,1.15121 1.60535,1.57065c0.42224,0.4194 1.10596,1.03268 1.51874,1.36275l0.7514,0.59999l-0.09143,1.25568c-0.09009,1.24091 -0.42157,3.5555 -0.87878,6.13776c-0.64313,3.63269 0.0304,5.39049 2.06494,5.39049c1.75513,0 2.42267,-1.17075 2.85437,-5.00723c0.104,-0.92635 0.25513,-1.75374 0.33539,-1.83867c0.08026,-0.08493 0.14587,-0.33229 0.14587,-0.54976c0,-1.05669 0.53778,-0.71259 3.83881,2.45709c0.61426,0.58965 1.3645,1.30296 1.66711,1.5854l0.55066,0.51321l-0.29968,1.89995c-0.16473,1.04486 -0.33752,2.29871 -0.38361,2.78607c-0.04602,0.48735 -0.16998,1.2184 -0.27496,1.62451c-1.09894,4.24814 -0.1839,6.63289 2.40979,6.28064c1.53204,-0.20786 1.99542,-1.32768 2.55273,-6.1684c0.13086,-1.13606 0.24011,-1.57542 0.43933,-1.76593c0.33759,-0.32344 0.06799,-0.54497 4.4137,3.62749c0.64001,0.61473 1.39386,1.26714 1.67511,1.45027c1.77075,1.1523 4.05139,-0.78127 3.31818,-2.81267c-0.23523,-0.65129 -0.61951,-1.07771 -2.6795,-2.97437c-3.4295,-3.15675 -3.55377,-3.42442 -1.71075,-3.67993c0.41003,-0.05722 0.87384,-0.19164 1.03052,-0.29941c0.15674,-0.10783 0.65295,-0.27658 1.10284,-0.3755c3.03442,-0.66643 4.32288,-2.528 3.08466,-4.45601c-0.85889,-1.33728 -1.87476,-1.41115 -5.1004,-0.37143c-0.65265,0.21045 -1.909,0.59186 -2.79187,0.84735c-0.883,0.25548 -1.84753,0.5708 -2.14386,0.70038c-0.75555,0.33084 -1.45874,0.30496 -1.74316,-0.06424c-0.12695,-0.16501 -1.26746,-1.25235 -2.5343,-2.41649c-1.26685,-1.16412 -2.38843,-2.19827 -2.49207,-2.29759c-0.33679,-0.32304 -0.05798,-0.78346 0.58099,-0.95996c3.50037,-0.96622 5.23273,-1.61751 5.65356,-2.12482c1.73309,-2.08824 -0.07013,-4.89203 -2.68683,-4.17834c-1.88379,0.51358 -2.53113,0.70961 -2.73083,0.82593c-0.11517,0.0672 -0.55481,0.20676 -0.97705,0.31013c-0.42236,0.10338 -1.396,0.38434 -2.16376,0.62396c-1.68591,0.52649 -2.31866,0.70261 -2.54028,0.70705c-0.16608,0.00368 -1.41656,-1.04193 -2.48511,-2.07756c-2.62543,-2.54533 -3.37781,-2.9127 -4.62689,-2.26105m-38.69299,0.50362c-0.33258,0.1595 -0.70947,0.4183 -0.83752,0.57523c-0.19971,0.24368 -2.1983,2.07164 -3.77991,3.45729c-0.47491,0.41611 -1.32715,0.463 -1.75854,0.09711c-0.07678,-0.06534 -0.61072,-0.25142 -1.18652,-0.41388c-0.5755,-0.16246 -1.48633,-0.43309 -2.0238,-0.60144c-0.53741,-0.16838 -1.38123,-0.40837 -1.87469,-0.53316c-0.49384,-0.12517 -0.96497,-0.28615 -1.047,-0.35812c-0.25922,-0.22672 -1.92853,-0.47998 -2.53296,-0.38399c-1.45728,0.23112 -2.43622,2.45378 -1.65137,3.7486c0.33612,0.55458 1.05743,1.19183 1.35687,1.19885c0.13922,0.00333 0.54761,0.1344 0.90735,0.29167c0.3598,0.15729 0.98694,0.35666 1.39386,0.44304c0.40692,0.08641 0.92206,0.25697 1.14465,0.37881c0.22266,0.12184 0.63202,0.22151 0.90942,0.22151c0.89136,0 1.46295,0.7628 0.85223,1.13718c-0.17731,0.10892 -1.78821,1.58835 -2.3064,2.11855c-2.96741,3.03491 -3.0603,3.07034 -5.737,2.17982c-3.68384,-1.22578 -6.01758,-1.87856 -6.73993,-1.88593c-1.69153,-0.01663 -2.75842,1.72864 -2.17242,3.55402c0.24463,0.76315 0.89099,1.25606 2.21185,1.68729c0.65259,0.21303 1.56348,0.51137 2.02411,0.66312c0.46063,0.15173 1.08881,0.32159 1.39594,0.3777c1.10034,0.20123 1.45422,0.73399 0.78802,1.18628c-0.20306,0.13809 -0.55768,0.43344 -0.78802,0.65646c-0.23035,0.22298 -0.98413,0.93483 -1.67511,1.5817c-3.54462,3.31883 -3.91632,4.39104 -2.04572,5.90038c1.1698,0.9437 1.94415,0.68932 4.13959,-1.36017c4.57385,-4.2692 4.19513,-3.9502 4.3913,-3.69987c0.16858,0.21487 0.24573,0.60774 0.62366,3.18077c0.50427,3.43329 0.48157,3.35022 1.10486,4.07312c0.66974,0.77684 1.31708,1.00241 2.31207,0.80562c1.65277,-0.32639 2.2345,-2.05983 1.61127,-4.80307c-0.11066,-0.48737 -0.29456,-1.58391 -0.40869,-2.4368c-0.11414,-0.85286 -0.30157,-2.14879 -0.41602,-2.87984c-0.42639,-2.71889 -0.57471,-2.4176 2.57867,-5.24207c0.49835,-0.446 0.93738,-0.84476 0.97577,-0.88609c1.71106,-1.83241 2.23352,-2.0218 2.23352,-0.80933c0,0.34781 0.12421,1.28523 0.2757,2.08273c0.15179,0.79784 0.3158,1.8512 0.36469,2.34041c0.29803,2.98471 3.49792,3.8985 4.76257,1.3598c0.38177,-0.76611 0.38495,-0.95515 0.04993,-2.89314c-0.14905,-0.86026 -0.37238,-2.3286 -0.49695,-3.26271c-0.12457,-0.9341 -0.28369,-1.93245 -0.35388,-2.2186c-0.57336,-2.34229 -0.44739,-2.68637 1.67969,-4.58412c2.61041,-2.32898 2.9953,-2.86804 2.90143,-4.06429c-0.13049,-1.6655 -1.72675,-2.66681 -3.15656,-1.98044m18.96069,6.95667c-1.20361,0.5025 -1.4256,1.31218 -1.42908,5.20883c-0.00311,3.60571 0.17834,3.23688 -2.43665,4.95038c-0.83087,0.54459 -3.43152,2.30315 -4.54407,3.07297c-2.11975,1.46649 -2.46075,3.58798 -0.75873,4.72479c1.22174,0.81595 1.95398,0.71994 3.65704,-0.47887c0.62988,-0.44344 1.18024,-0.80637 1.22247,-0.80637c0.04254,0 0.57513,-0.35446 1.18341,-0.78752c1.74182,-1.24055 1.67822,-1.36351 1.67688,3.25015c-0.0014,4.20163 -0.03174,4.37218 -0.86023,4.83336c-0.58978,0.32822 -3.29095,2.11041 -3.56348,2.35077c-0.12079,0.10706 -0.87946,0.63356 -1.68567,1.17075c-2.49451,1.66147 -3.07489,2.8374 -2.19611,4.44902c0.99353,1.82278 2.38171,1.6954 5.5495,-0.5099c1.61401,-1.12349 2.21045,-1.46541 2.44775,-1.40227l0.31372,0.08345l0.01709,3.71907c0.01929,4.14882 0.03387,4.27216 0.58661,4.98767c0.93011,1.20363 2.90961,1.00797 3.65918,-0.36108c0.10748,-0.19643 0.18506,-1.72534 0.23138,-4.5616c0.08685,-5.3074 -0.11792,-5.05415 2.57269,-3.1826c1.04382,0.72586 1.94,1.31993 1.99164,1.31993c0.05164,0 0.22375,0.12369 0.38214,0.27504c1.62317,1.54814 4.26044,0.14807 4.10132,-2.17722c-0.07715,-1.12941 -0.32251,-1.43623 -2.16998,-2.71483c-0.82672,-0.57263 -1.86676,-1.2963 -2.31067,-1.60864c-0.44354,-0.31236 -0.84064,-0.56784 -0.8822,-0.56784c-0.0415,0 -0.69452,-0.43199 -1.45148,-0.95996c-0.75696,-0.52797 -1.44202,-0.95993 -1.52258,-0.95993c-0.55176,0 -0.71088,-1.07072 -0.71088,-4.78351l0,-3.61385l0.31409,-0.05464c0.34619,-0.05981 1.19696,0.39728 2.26837,1.21951c2.6582,2.03914 3.77533,2.44859 4.94269,1.81096c1.31958,-0.72031 1.7453,-1.98157 1.12933,-3.34543c-0.34796,-0.76981 -0.56323,-0.95958 -2.74408,-2.41243c-6.55951,-4.37071 -5.90869,-3.54221 -5.901,-7.51343c0.00629,-3.20401 -0.0412,-3.47389 -0.72894,-4.15141c-0.61285,-0.60364 -1.57501,-0.79712 -2.3515,-0.47333" fill="#1c1a1b" fill-rule="evenodd"/>
   </g>
  </g>
  <g stroke="null">
   <g stroke="null" id="svg_9">
    <path stroke="null" fill-rule="evenodd" fill="#1c1a1b" d="m582.20819,234.64908c-2.24316,0.50882 -2.297,0.66132 -2.40088,6.78998c-0.09723,5.757 -0.05011,5.61983 -1.58997,4.59254c-2.37231,-1.58257 -3.81531,-2.5704 -4.1192,-2.82111c-2.6488,-2.18297 -6.34326,1.1991 -4.42792,4.0535c0.27606,0.41196 2.40338,2.17027 2.62482,2.17027c0.06042,0 0.52734,0.28838 1.03778,0.64073c0.50995,0.35237 1.41193,0.96988 2.00385,1.37221c0.59198,0.40233 1.61731,1.10223 2.27881,1.55582c0.6615,0.45317 1.37677,0.8945 1.58954,0.97997c0.8631,0.34753 0.91071,10.00157 0.04968,10.00157c-0.18335,0 -2.40625,-1.46686 -4.54309,-2.99771c-2.69098,-1.92834 -5.33569,-0.8064 -5.33569,2.26318c0,1.50015 0.49011,1.92352 8.11334,7.01218c2.45013,1.63516 2.27209,1.19778 2.29773,5.64307c0.0282,4.87305 0.58582,5.93628 3.01563,5.75c2.11652,-0.16217 2.45923,-1.05008 2.4646,-6.38855l0.00415,-3.70682l1.20044,-0.84146c0.66028,-0.4628 1.47986,-1.02335 1.82135,-1.24551c0.84778,-0.55222 1.57751,-1.04398 3.52307,-2.37192c0.91315,-0.62363 1.84454,-1.23499 2.0697,-1.35901c2.84674,-1.56418 2.08795,-6.14008 -1.01825,-6.14008c-0.58533,0 -2.12598,0.70911 -2.45679,1.13116c-0.11713,0.14944 -0.27612,0.27127 -0.35394,0.27127c-0.07733,0 -0.98761,0.58682 -2.02209,1.30429c-2.20013,1.52515 -2.71008,1.7298 -2.79163,1.12152c-0.02979,-0.22528 -0.03351,-2.43982 -0.00787,-4.92126l0.04675,-4.51147l1.02954,-0.74767c1.36804,-0.99397 2.71008,-1.90819 5.50006,-3.74802c3.42249,-2.25705 3.85339,-2.8018 3.68494,-4.65872c-0.22937,-2.52921 -2.58099,-3.39345 -4.99139,-1.83501c-2.87811,1.86043 -3.50024,2.27722 -3.57806,2.39598c-0.08777,0.13367 -1.41449,0.87477 -1.56635,0.87477c-0.04932,0 -0.08948,-2.07123 -0.08948,-4.60307c0,-4.84454 -0.06213,-5.40988 -0.67719,-6.15887c-0.28192,-0.34315 -1.9505,-1.12984 -2.04364,-0.96329c-0.00623,0.01138 -0.16022,0.05432 -0.34235,0.09554m38.40698,22.65286c-1.72284,0.82874 -2.1637,2.98807 -1.31635,6.44943c0.12213,0.49832 0.2724,1.56332 0.33405,2.36664c0.06134,0.80289 0.21405,1.85471 0.33942,2.33682c0.35852,1.38052 0.53235,3.34918 0.3291,3.73181c-0.14197,0.26776 -2.79663,2.88681 -4.11957,4.06442c-0.16559,0.14725 -0.53815,0.49304 -0.82788,0.76785c-1.66199,1.57773 -2.09991,1.61496 -2.09991,0.17923c0,-0.31293 -0.0799,-0.79108 -0.17798,-1.06235c-0.09772,-0.27127 -0.284,-1.39804 -0.414,-2.50424c-0.37457,-3.18921 -0.71814,-3.93646 -2.09698,-4.56448c-2.64392,-1.20435 -4.50372,1.19601 -3.76447,4.85724c0.09357,0.46283 0.27612,1.63034 0.40607,2.59454c0.12964,0.96417 0.38666,2.77856 0.57123,4.03198c0.49725,3.37506 0.63666,3.00778 -2.06183,5.43445c-0.53601,0.48212 -1.4964,1.39981 -2.13428,2.03925l-1.15942,1.16272l0.01074,1.28452l0.01117,1.28455l0.78485,0.75208c1.12177,1.07547 2.9104,1.05795 3.81573,-0.03726c0.09106,-0.11044 0.68713,-0.67624 1.32465,-1.25781c0.63745,-0.58157 1.53156,-1.42786 1.98688,-1.88058c1.37677,-1.36954 1.77295,-1.51724 3.06317,-1.14212c0.59192,0.17224 1.60864,0.46631 2.2594,0.6539c0.65112,0.18759 1.25751,0.38919 1.34857,0.44876c0.09064,0.0592 0.63873,0.22089 1.21741,0.35938c0.5791,0.13806 1.94098,0.53033 3.02637,0.87173c2.55438,0.80331 3.1828,0.69156 4.31329,-0.76523c0.77112,-0.99353 0.90857,-2.06024 0.39575,-3.07263c-0.61804,-1.22055 -1.11646,-1.52383 -3.86792,-2.35126c-4.78973,-1.44104 -4.76868,-1.42963 -3.99292,-2.18521c1.28241,-1.24948 3.22839,-3.0722 4.39905,-4.1214c0.6875,-0.61575 1.30927,-1.22711 1.38208,-1.35861c0.1958,-0.35324 1.7804,-0.3002 2.84094,0.09424c0.49255,0.1832 1.21741,0.39005 1.61023,0.45929c0.39325,0.06882 0.90112,0.22528 1.12885,0.34711c0.2276,0.12183 0.74921,0.27917 1.159,0.3493c0.40985,0.07056 1.05768,0.27698 1.43976,0.45886c0.38202,0.18231 0.84528,0.3313 1.02905,0.3313c0.18378,0 0.68384,0.12579 1.11145,0.27917c2.63428,0.94708 4.80383,-0.98874 4.08148,-3.64154c-0.39868,-1.46375 -1.85577,-2.30042 -5.61475,-3.22336c-1.02948,-0.2529 -2.5437,-0.8634 -2.5437,-1.026c0,-0.12357 0.56628,-0.70209 2.24524,-2.29297c0.81421,-0.77133 1.51746,-1.44232 1.56305,-1.491c0.04553,-0.04865 0.73102,-0.70557 1.52332,-1.45984c1.29645,-1.23456 1.45166,-1.44888 1.55023,-2.14529c0.48969,-3.45569 -2.58057,-4.69467 -5.22729,-2.10934c-5.63794,5.5072 -5.99109,5.77014 -6.18433,4.60788c-0.0509,-0.30679 -0.16101,-0.95236 -0.24506,-1.43442c-0.08405,-0.48212 -0.27484,-1.78375 -0.42432,-2.89252c-0.42633,-3.16473 -0.98059,-4.25687 -2.38684,-4.703c-0.86548,-0.27435 -1.15118,-0.25638 -1.94177,0.12402m-79.52533,0.74768c-0.90906,0.47638 -1.48352,1.39236 -1.68182,2.68039c-0.08527,0.55527 -0.19373,1.13992 -0.24054,1.29947c-0.04712,0.15909 -0.19409,1.16751 -0.3266,2.23993c-0.41724,3.38034 -0.66309,3.67526 -1.97369,2.36792c-0.47021,-0.46936 -1.1532,-1.11887 -1.51746,-1.44275c-0.36426,-0.32428 -1.45465,-1.35248 -2.42328,-2.2851c-2.45758,-2.36661 -4.32404,-2.72684 -5.39655,-1.04218c-1.12219,1.76312 -0.83002,2.88727 1.27203,4.89716c2.68481,2.56689 4.00116,3.78833 4.23547,3.92902c0.12335,0.07407 0.38245,0.36987 0.57581,0.65695l0.35138,0.5224l-0.46649,0.18845c-0.72357,0.29187 -3.65887,1.20697 -4.85144,1.51245c-2.28827,0.58636 -3.40009,2.06903 -2.98785,3.98334c0.46741,2.1694 2.22003,2.81937 5.05469,1.8736c1.30231,-0.43475 2.91626,-0.92694 4.63623,-1.41516c0.63745,-0.181 1.45703,-0.44482 1.82129,-0.5864c1.42236,-0.55399 2.25397,-0.54739 2.98291,0.02237c1.65662,1.29547 6.23608,5.81046 6.15491,6.06815c-0.05585,0.17841 -2.15167,0.94403 -2.63806,0.96375c-0.27362,0.01138 -0.93512,0.22089 -3.43652,1.08908c-2.29944,0.79807 -3.11707,2.79877 -1.92401,4.70737c0.8941,1.43048 2.03455,1.6597 4.49042,0.9028c3.29004,-1.01324 6.01465,-1.83716 7.64563,-2.31137c1.30017,-0.37823 1.6524,-0.32211 2.39465,0.38171c0.24005,0.22748 0.72437,0.68063 1.07623,1.00714c0.35187,0.32651 0.97479,0.92081 1.38458,1.32092c0.40985,0.39972 1.1897,1.10706 1.73285,1.57159l0.98761,0.84457l1.14868,-0.06885c1.63806,-0.09818 2.42163,-1.00229 2.42249,-2.79565l0.00037,-1.16406l-0.87585,-0.93958c-0.48187,-0.51718 -1.13428,-1.17679 -1.44971,-1.466c-0.3158,-0.28928 -1.19629,-1.1167 -1.95667,-1.83896l-1.38342,-1.31302l0.11426,-1.40421c0.0625,-0.77222 0.21234,-1.99585 0.33282,-2.71896c0.12048,-0.72314 0.30792,-1.94589 0.41681,-2.71722c0.10889,-0.77136 0.30219,-2.02258 0.43011,-2.78036c0.49957,-2.96439 0.1391,-4.24588 -1.41113,-5.01459c-2.43646,-1.20825 -4.06744,0.44574 -4.4884,4.55179c-0.08405,0.81958 -0.26617,1.94763 -0.40485,2.5069c-0.13867,0.55878 -0.25208,1.19995 -0.25208,1.42477c0,1.03561 -0.99182,0.55045 -3.02057,-1.47739c-0.2384,-0.23883 -1.53033,-1.47562 -3.33307,-3.19275c-0.78235,-0.74457 -0.84814,-1.49271 -0.35596,-4.05612c0.13202,-0.68936 0.31622,-1.84506 0.4093,-2.56818c0.09277,-0.72314 0.2749,-1.96036 0.40485,-2.74966c0.20746,-1.26395 0.33612,-3.24927 0.28357,-4.38043c-0.07031,-1.5098 -2.44678,-2.58005 -3.96393,-1.78503m25.20715,19.21692c-0.1275,0.0907 -0.17676,2.6348 -0.16559,8.58115l0.01575,8.45233l2.0697,2.12643c1.13837,1.16971 3.07562,3.1568 4.30499,4.41592c1.22949,1.2587 3.4068,3.5087 4.83862,4.99966c1.77295,1.84644 2.68408,2.67822 2.8562,2.60855c0.32581,-0.13235 0.38745,-16.51721 0.06458,-17.17371c-0.10345,-0.21082 -0.64368,-0.85068 -1.20038,-1.42261c-1.84045,-1.89023 -7.59674,-7.84314 -9.96198,-10.30267c-2.30945,-2.40121 -2.47253,-2.53314 -2.8219,-2.28506m27.98303,3.8602c-1.92065,1.99713 -4.94165,5.13028 -6.71289,6.96222c-1.7713,1.83194 -3.31158,3.56744 -3.42291,3.85669c-0.15112,0.39401 -0.19086,2.57217 -0.15814,8.67758l0.04346,8.15167l0.36304,0c0.33447,0 2.37268,-2.04974 12.57977,-12.64868l1.54523,-1.60446l0,-8.51938l0,-8.51935l-0.37256,0.00613c-0.2583,0.00394 -1.44507,1.12106 -3.86499,3.63757m8.48175,17.25522c-0.45697,0.10037 -1.19379,0.7981 -3.69073,3.49469c-1.71576,1.85342 -3.90228,4.21347 -4.85852,5.24512c-5.20117,5.61066 -5.58655,6.08966 -5.13617,6.38416c0.3324,0.21741 15.55188,0.1109 15.94806,-0.11176c0.20068,-0.11261 0.92352,-0.81033 1.60645,-1.55011c1.26752,-1.37305 11.50806,-12.49133 11.87573,-12.89322c0.52069,-0.56973 -0.14075,-0.62628 -7.71637,-0.66046c-4.10138,-0.0184 -7.71429,0.0228 -8.02844,0.09158m-55.94586,0.41284c-0.33527,0.36115 0.19586,1.03079 4.30548,5.427c2.43561,2.60632 5.43091,5.82886 6.65533,7.16122c1.22449,1.33273 2.39227,2.48975 2.59424,2.57083c0.20197,0.08151 3.79297,0.14899 7.97919,0.14987c9.08527,0.00174 8.82489,0.06268 7.13226,-1.66321c-0.55884,-0.56973 -1.13715,-1.19116 -1.28442,-1.38138c-0.14783,-0.18976 -1.95227,-2.16196 -4.00952,-4.38263c-2.05774,-2.22021 -4.51697,-4.88531 -5.4649,-5.92181l-1.72363,-1.88452l-7.30322,0c-4.01654,0 -7.62982,-0.04691 -8.02966,-0.10431c-0.3999,-0.05737 -0.78284,-0.04425 -0.85114,0.02893m-14.6073,2.10147c-2.19342,0.87216 -2.5788,3.09457 -0.97601,5.62552c0.40277,0.63593 0.93182,1.52167 1.17523,1.9678c0.24335,0.44617 0.4859,0.85068 0.53937,0.8989c0.46356,0.41986 1.13129,1.83456 0.99384,2.10626c-0.16724,0.33044 -6.95343,0.52023 -8.6051,0.2406c-0.76001,-0.12885 -0.53229,0.1705 -2.96344,-3.88779c-3.21173,-5.36084 -3.68738,-6.10324 -4.07355,-6.35922c-1.54407,-1.02246 -3.6767,-0.42419 -4.32245,1.21268c-0.53564,1.3569 -0.10968,2.8544 1.5022,5.28284c0.31958,0.4812 0.58124,0.91858 0.58124,0.97162c0,0.1214 0.63867,1.0983 1.04559,1.59921c0.16846,0.20731 0.28149,0.56229 0.25128,0.78888l-0.05505,0.4115l-4.37378,0.04956c-4.86551,0.05475 -5.13416,0.10999 -5.93347,1.21924c-0.83786,1.16315 -0.75046,2.4433 0.24091,3.53241l0.81586,0.89624l4.92017,0c4.27069,0 4.93298,0.03546 5.01782,0.26907c0.10065,0.27744 -0.42755,1.27228 -2.12354,4.00046c-0.53064,0.85327 -0.96484,1.62244 -0.96484,1.7092c0,0.08636 -0.16602,0.33267 -0.36926,0.54782c-0.60229,0.6377 -0.63666,2.55026 -0.06293,3.46796c1.28778,2.06076 3.66876,1.89597 5.10431,-0.35278c0.64948,-1.01764 2.55035,-4.16919 4.14575,-6.87415c0.52399,-0.88837 1.16974,-1.87488 1.43469,-2.19174l0.48181,-0.57584l4.19489,0.00259c5.26746,0.00354 5.14532,-0.08981 3.43365,2.62695c-1.41028,2.23819 -1.94843,3.15549 -2.0506,3.49557c-0.0592,0.19852 -0.17474,0.36115 -0.25629,0.36115c-0.73431,0 -0.52362,2.74789 0.28314,3.69321c1.46118,1.71231 3.54083,1.32358 4.93585,-0.92252c0.43756,-0.70428 0.93347,-1.49448 1.10229,-1.75568c0.16852,-0.2612 0.30676,-0.51147 0.30676,-0.55573c0,-0.04471 0.33691,-0.61972 0.74841,-1.27841c1.00879,-1.61325 0.99475,-1.59003 1.66492,-2.68698c0.32416,-0.53033 0.72601,-1.2403 0.89331,-1.57776c0.69128,-1.39584 0.62708,-1.37701 4.94495,-1.43661l3.86169,-0.05347l0.55432,-0.64075c1.39209,-1.60886 0.84937,-4.14288 -1.00385,-4.68762c-0.35895,-0.10562 -2.03119,-0.19681 -3.716,-0.20291c-4.32117,-0.01538 -4.41052,-0.04297 -5.0791,-1.56854c-0.11792,-0.26996 -2.41821,-4.03421 -3.55658,-5.82013c-0.35016,-0.55002 -0.63666,-1.07025 -0.63666,-1.15616c0,-0.0863 -0.1424,-0.29318 -0.31586,-0.45972c-0.17383,-0.16653 -0.40192,-0.52197 -0.50702,-0.79019c-0.37427,-0.95715 -2.13147,-1.57904 -3.22888,-1.14255m113.58142,0.58072c-0.73889,0.48602 -3.55994,4.65256 -3.55994,5.25781c0,0.08588 -0.11133,0.25421 -0.24713,0.37384c-0.13617,0.11963 -0.48511,0.66174 -0.7757,1.20477c-0.29059,0.54303 -0.57538,1.02686 -0.63336,1.07507c-0.05756,0.04819 -0.38495,0.57236 -0.72729,1.16443c-1.14001,1.97305 -0.66559,1.81573 -5.47443,1.81573c-4.12122,0 -4.72595,-0.04822 -4.72595,-0.37561c0,-0.1376 1.11432,-2.04666 2.61816,-4.48602c1.6554,-2.68436 1.7489,-4.04648 0.36884,-5.36652c-1.84247,-1.76227 -3.5744,-1.01282 -5.56177,2.40692c-0.51038,0.87872 -1.40576,2.38678 -1.98944,3.35095c-0.58325,0.96417 -1.20538,2.03442 -1.38214,2.37848c-0.17676,0.34357 -0.43878,0.72836 -0.58197,0.85416c-0.14325,0.12576 -0.26038,0.32782 -0.26038,0.44876c0,0.60526 -0.50342,0.70035 -4.20569,0.7937c-4.3067,0.10867 -4.66602,0.21695 -5.33203,1.60797c-0.48181,1.00714 -0.49463,1.44278 -0.07202,2.44067c0.6474,1.52954 0.96863,1.6308 5.4856,1.73157c2.16241,0.04822 3.96185,0.12714 3.99866,0.17532c0.2807,0.36725 1.01086,1.52603 1.53284,2.4328c0.18213,0.31644 0.92731,1.55234 1.65576,2.74658c0.72864,1.19424 1.67657,2.74966 2.1062,3.45657c1.97083,3.24136 5.23682,3.08011 5.75879,-0.28442c0.17389,-1.12241 -0.05756,-1.7193 -1.69257,-4.36905c-0.34406,-0.55704 -0.62555,-1.06235 -0.62555,-1.12283c0,-0.06006 -0.18622,-0.36771 -0.41394,-0.68411c-0.22766,-0.31601 -0.41394,-0.64645 -0.41394,-0.7341c0,-0.08807 -0.15228,-0.30588 -0.33862,-0.48428c-0.99463,-0.95322 -0.64734,-1.04086 4.33777,-1.09128l4.57867,-0.04688l0.47144,0.69812c0.25916,0.38348 0.76953,1.21753 1.13379,1.853c0.36432,0.6355 1.13507,1.92047 1.71289,2.85483c0.57788,0.93481 1.17401,1.92706 1.32465,2.20447c0.15063,0.27786 0.36139,0.66528 0.46814,0.86075c1.63721,3.00165 4.70703,3.24799 5.83667,0.46808c0.60138,-1.48047 0.23926,-2.34076 -3.34058,-7.93735c-0.62708,-0.98041 -0.5592,-0.99622 4.28558,-0.99622c4.4093,0 4.42175,-0.00085 5.12213,-0.43561c1.87311,-1.16226 1.76709,-4.06137 -0.18256,-5.00189c-0.66309,-0.31949 -1.08661,-0.34753 -5.28857,-0.34753c-3.69067,0 -4.58398,-0.04559 -4.6535,-0.23755c-0.09973,-0.27567 0.23303,-0.90588 1.81927,-3.44385c2.16907,-3.47058 2.47003,-4.47552 1.77209,-5.92355c-0.71075,-1.47433 -2.65167,-2.11328 -3.90887,-1.28671m-56.53979,16.05701c-0.22437,0.28619 -0.42102,0.06268 8.57813,9.75131c2.03418,2.19003 3.81372,4.15604 3.95441,4.36862c0.66974,1.01282 0.93219,1.04221 9.23596,1.04349c4.18909,0.00089 7.71967,-0.06793 7.84546,-0.1525c0.34149,-0.22879 0.3067,-0.26999 -5.61432,-6.67343c-2.95764,-3.198 -5.91357,-6.42007 -6.5697,-7.16074l-1.19214,-1.34592l-8.0144,-0.04868c-7.00604,-0.04248 -8.04089,-0.01489 -8.22339,0.21783m-28.6499,0.43826c-0.31879,0.18451 -2.22955,2.1348 -4.24628,4.33441c-2.01715,2.19919 -4.94171,5.3696 -6.49896,7.04462c-2.80194,3.01349 -3.02881,3.32904 -2.62524,3.64938c0.38666,0.30679 15.24109,0.30243 15.79407,-0.00482c0.5965,-0.3313 0.89001,-0.63107 5.00873,-5.11713c1.85699,-2.02255 4.57904,-4.97864 6.04938,-6.56955c2.05316,-2.22153 2.65997,-2.98062 2.61658,-3.27249l-0.05676,-0.37994l-7.7312,-0.0101c-7.31024,-0.00922 -7.76233,0.00879 -8.3103,0.32562m23.71893,4.40192l-0.3725,0.15076l0.00409,7.85056c0.00214,4.31778 0.06793,8.1438 0.14655,8.50186c0.11884,0.54169 0.83453,1.36563 4.25995,4.90546c2.26422,2.33948 5.30591,5.49802 6.75928,7.01837c1.86359,1.94934 2.75439,2.76407 3.02179,2.76407l0.37915,0l0,-8.10916c0,-4.45972 -0.0658,-8.35196 -0.14612,-8.64862c-0.13287,-0.48956 -1.84784,-2.35742 -7.39014,-8.04782c-0.56335,-0.57849 -2.20923,-2.28595 -3.6568,-3.79404c-2.32764,-2.42447 -2.67572,-2.7247 -3.00525,-2.59143m-5.19952,0.99484c-0.71985,0.80905 -3.7735,3.97809 -9.79102,10.15982c-1.61438,1.65833 -3.00525,3.20981 -3.09052,3.4469c-0.0882,0.24631 -0.15027,3.81815 -0.14447,8.31735c0.0058,4.33746 -0.03809,7.96979 -0.09729,8.07147c-0.05957,0.10208 0.06335,0.30414 0.27283,0.44962c0.37128,0.25772 0.4549,0.18759 3.28961,-2.75314c1.59985,-1.65967 4.70905,-4.88049 6.90955,-7.15726l4.00116,-4.1398l0,-8.50708c0,-8.74072 0.00128,-8.72058 -0.56622,-8.72058c-0.02362,0 -0.37628,0.37473 -0.78363,0.8327m25.25183,15.22479c-1.07458,0.56094 -1.3006,1.00317 -1.3006,2.54233l0,1.39191l0.99347,0.95938c0.54639,0.52768 1.40326,1.36649 1.90417,1.86438c0.50085,0.49786 1.31171,1.22583 1.80145,1.61761l0.89124,0.71219l-0.10846,1.49051c-0.10681,1.47296 -0.50006,4.22049 -1.04236,7.28568c-0.76288,4.31207 0.03601,6.39862 2.44934,6.39862c2.08173,0 2.87366,-1.38974 3.38562,-5.9437c0.12341,-1.09961 0.30267,-2.08176 0.39783,-2.18256c0.09521,-0.10083 0.17303,-0.39444 0.17303,-0.65259c0,-1.25433 0.63794,-0.84583 4.55341,2.91663c0.72852,0.69992 1.61853,1.54666 1.97742,1.88193l0.65314,0.60916l-0.35553,2.25531c-0.19537,1.24026 -0.40027,2.72858 -0.45496,3.3071c-0.05457,0.57852 -0.20154,1.44629 -0.32617,1.92834c-1.30353,5.04266 -0.21814,7.87341 2.85828,7.45529c1.81726,-0.24677 2.36694,-1.57599 3.02808,-7.32202c0.15515,-1.34854 0.28473,-1.87009 0.52112,-2.09619c0.40027,-0.38397 0.08069,-0.64691 5.23511,4.30591c0.75922,0.72971 1.65332,1.50409 1.98694,1.72147c2.1004,1.36783 4.80554,-0.92734 3.93579,-3.33865c-0.27899,-0.7731 -0.73474,-1.2793 -3.17822,-3.53064c-4.06787,-3.74716 -4.21521,-4.06488 -2.02917,-4.36816c0.48639,-0.06793 1.0365,-0.22745 1.22235,-0.35544c0.18585,-0.12796 0.77448,-0.32825 1.30811,-0.44571c3.59924,-0.79108 5.1275,-3.00076 3.65887,-5.28937c-1.0188,-1.58737 -2.22375,-1.67508 -6.0498,-0.44089c-0.77411,0.24979 -2.26434,0.70251 -3.31158,1.00583c-1.0473,0.30325 -2.19141,0.67752 -2.54285,0.83133c-0.89618,0.3927 -1.73029,0.36203 -2.06769,-0.07623c-0.15063,-0.19592 -1.50342,-1.48657 -3.0061,-2.86844c-1.50256,-1.38184 -2.83295,-2.60938 -2.95593,-2.72726c-0.39941,-0.38348 -0.06873,-0.92999 0.68921,-1.13953c4.15186,-1.14694 6.20673,-1.91998 6.70593,-2.52222c2.05566,-2.47876 -0.08319,-5.80695 -3.18701,-4.95975c-2.23444,0.60959 -3.00232,0.84235 -3.23907,0.98038c-0.1366,0.07977 -0.65814,0.24542 -1.15906,0.36813c-0.50085,0.12271 -1.65576,0.45624 -2.56647,0.74066c-1.99976,0.62497 -2.75018,0.83401 -3.01306,0.83926c-0.19702,0.00439 -1.68018,-1.23679 -2.94769,-2.46609c-3.11414,-3.02139 -4.00653,-3.45746 -5.4881,-2.6839m-45.89526,0.59781c-0.39447,0.1893 -0.84149,0.49652 -0.99341,0.68277c-0.23682,0.28925 -2.60742,2.45911 -4.48346,4.10388c-0.56342,0.49393 -1.57428,0.54962 -2.08582,0.1153c-0.09113,-0.07758 -0.72443,-0.29846 -1.40747,-0.4913c-0.68262,-0.19284 -1.763,-0.5141 -2.40045,-0.71393c-0.63745,-0.19986 -1.63843,-0.48474 -2.22375,-0.63284c-0.58569,-0.14859 -1.14453,-0.33966 -1.24176,-0.42514c-0.30762,-0.26907 -2.28748,-0.56973 -3.00446,-0.45578c-1.72864,0.27435 -2.88971,2.91269 -1.95874,4.44968c0.39862,0.65826 1.25421,1.41473 1.60938,1.42303c0.16516,0.00394 0.64954,0.15952 1.07629,0.34622c0.42676,0.18668 1.17059,0.42337 1.65326,0.52591c0.48267,0.10257 1.09369,0.30502 1.35773,0.44965c0.26416,0.14465 0.74969,0.26297 1.0788,0.26297c1.05719,0 1.73517,0.90546 1.0108,1.34985c-0.21027,0.12927 -2.12103,1.88541 -2.73572,2.51474c-3.51984,3.60251 -3.62988,3.64459 -6.80487,2.58752c-4.36957,-1.45508 -7.13763,-2.22989 -7.99451,-2.23868c-2.00641,-0.01974 -3.27179,2.05197 -2.57678,4.21872c0.29016,0.90591 1.05676,1.49094 2.6236,2.00287c0.77405,0.25284 1.85443,0.60699 2.40088,0.78714c0.54639,0.18008 1.2915,0.38168 1.65576,0.4483c1.30518,0.23886 1.72485,0.87128 0.93463,1.40814c-0.24091,0.16391 -0.66144,0.51453 -0.93463,0.77924c-0.27319,0.26471 -1.16736,1.10968 -1.98694,1.8775c-4.20447,3.93951 -4.64526,5.21222 -2.42651,7.00385c1.38751,1.12021 2.30603,0.81827 4.91016,-1.61453c5.42517,-5.06763 4.97607,-4.68896 5.20862,-4.39185c0.20001,0.25507 0.2915,0.72141 0.73981,3.77563c0.59814,4.07538 0.57123,3.97678 1.31055,4.8349c0.79431,0.92209 1.56219,1.18988 2.74237,0.9563c1.96045,-0.38742 2.65045,-2.44507 1.91113,-5.70132c-0.13116,-0.57852 -0.34937,-1.88019 -0.48468,-2.89258c-0.13538,-1.01236 -0.35767,-2.55066 -0.49347,-3.4184c-0.50586,-3.22742 -0.68176,-2.86975 3.05865,-6.22244c0.59113,-0.52942 1.11188,-1.00275 1.15741,-1.05182c2.02954,-2.17511 2.64923,-2.39996 2.64923,-0.96069c0,0.41284 0.14734,1.5256 0.32703,2.47223c0.18005,0.94708 0.37463,2.19745 0.43256,2.77814c0.35352,3.54291 4.14899,4.62762 5.64911,1.61414c0.45288,-0.90939 0.4566,-1.13379 0.0592,-3.43423c-0.17676,-1.02115 -0.44171,-2.7641 -0.58948,-3.87289c-0.14777,-1.1088 -0.33649,-2.29388 -0.41974,-2.63354c-0.68005,-2.7803 -0.53064,-3.18878 1.99231,-5.44144c3.09631,-2.76456 3.55292,-3.40442 3.44159,-4.8244c-0.15485,-1.97699 -2.04822,-3.16559 -3.7442,-2.3508m22.48999,8.25769c-1.42767,0.5965 -1.69092,1.55759 -1.69507,6.18298c-0.00372,4.28009 0.21155,3.84225 -2.89014,5.87622c-0.9856,0.64642 -4.07031,2.73389 -5.39001,3.64764c-2.51422,1.74081 -2.9187,4.25903 -0.89984,5.60846c1.44916,0.96854 2.31763,0.85461 4.33771,-0.56842c0.74713,-0.5264 1.3999,-0.95718 1.45001,-0.95718c0.05048,0 0.68219,-0.42075 1.40369,-0.93478c2.06598,-1.47256 1.99066,-1.6185 1.98901,3.858c-0.00165,4.98743 -0.03766,5.18991 -1.02032,5.73727c-0.69958,0.38962 -3.90356,2.50513 -4.22681,2.79044c-0.14325,0.12708 -1.04315,0.75204 -1.99933,1.38971c-2.95892,1.97217 -3.64734,3.36804 -2.60498,5.28104c1.17853,2.16373 2.8252,2.01251 6.58252,-0.60522c1.91449,-1.33362 2.62189,-1.73947 2.90344,-1.66449l0.37207,0.099l0.02032,4.41464c0.02277,4.92474 0.04016,5.07114 0.6958,5.92047c1.10321,1.42874 3.45105,1.19644 4.34027,-0.42862c0.1275,-0.23315 0.2193,-2.048 0.27441,-5.41473c0.10303,-6.30002 -0.13995,-5.99936 3.05157,-3.77783c1.23816,0.86163 2.30115,1.5668 2.36243,1.5668c0.06128,0 0.26532,0.14682 0.45325,0.32651c1.92523,1.83765 5.05347,0.17575 4.86462,-2.58441c-0.09143,-1.34067 -0.38245,-1.70483 -2.57385,-3.22253c-0.98065,-0.67975 -2.21423,-1.53873 -2.74072,-1.90952c-0.52618,-0.37079 -0.99719,-0.67404 -1.04651,-0.67404c-0.04919,0 -0.82373,-0.51279 -1.72156,-1.1395c-0.89783,-0.62671 -1.71039,-1.13947 -1.80603,-1.13947c-0.65442,0 -0.8432,-1.27097 -0.8432,-5.67813l0,-4.2897l0.37256,-0.06485c0.41058,-0.07098 1.4198,0.47156 2.69061,1.44757c3.15302,2.42053 4.47809,2.90652 5.86273,2.14969c1.56512,-0.85507 2.07013,-2.35217 1.33954,-3.9711c-0.41278,-0.91379 -0.66815,-1.13907 -3.25488,-2.86359c-7.78052,-5.18817 -7.00848,-4.20471 -6.99939,-8.91864c0.00745,-3.80328 -0.04889,-4.1236 -0.86475,-4.92783c-0.72687,-0.71658 -1.8681,-0.9462 -2.78918,-0.56186" id="svg_10"/>
   </g>
  </g>
 </g>

</svg>